<svg width="48" height="48" viewBox="0 0 48 48" fill="none" xmlns="http://www.w3.org/2000/svg">
<path d="M45.6262 5.52375C45.0862 5.27625 44.4712 5.3625 44.0212 5.74875L32.0175 16.095C31.8263 16.26 31.5675 16.32 31.3237 16.2487L21.2775 13.3987C20.5163 13.1813 19.6837 13.3875 19.1137 13.9312L9.195 23.3738C8.9775 23.58 8.6625 23.64 8.385 23.5238L3.58125 21.4988C3.12 21.3038 2.59125 21.3525 2.17125 21.63C1.75125 21.9075 1.5 22.3763 1.5 22.8788V42.75C1.5 43.9913 2.50875 45 3.75 45H44.25C45.4912 45 46.5 43.9913 46.5 42.75V6.885C46.5 6.2925 46.1662 5.77125 45.6262 5.52375ZM45 22.7588L35.97 26.73C35.7712 26.82 35.5462 26.8163 35.3475 26.7225L26.7862 22.665C25.92 22.2563 24.8887 22.44 24.2137 23.1263L16.5337 30.99C16.3537 31.17 16.0987 31.2488 15.8475 31.2L10.8712 30.2063C10.4625 30.1238 10.0687 30.39 9.99 30.795C9.9075 31.2 10.17 31.5975 10.5787 31.6763L15.555 32.67C15.7012 32.7 15.8513 32.715 15.9975 32.715C16.5975 32.715 17.175 32.475 17.6062 32.0363L25.2862 24.1763C25.5112 23.9475 25.8562 23.8837 26.145 24.0225L34.7062 28.0763C35.295 28.3575 35.9775 28.365 36.5737 28.1025L45 24.3975V42.75C45 43.1625 44.6625 43.5 44.25 43.5H3.75C3.3375 43.5 3 43.1625 3 42.75V22.8788L7.80375 24.9038C8.62875 25.2525 9.58125 25.0763 10.23 24.4613L20.145 15.0187C20.3362 14.8387 20.6137 14.7675 20.8687 14.8425L30.915 17.6925C31.6425 17.9025 32.4225 17.73 32.9962 17.2312L45 6.885V22.7588Z" fill="white"/>
<path d="M7.8975 29.6137L6.16875 29.2687C5.76375 29.1862 5.37 29.4487 5.2875 29.8575C5.20875 30.2625 5.47125 30.6562 5.87625 30.7387L7.60125 31.0837C7.65375 31.0912 7.7025 31.0987 7.75125 31.0987C8.1 31.0987 8.415 30.8512 8.48625 30.495C8.565 30.09 8.3025 29.6925 7.8975 29.6137ZM5.25 39C4.8375 39 4.5 39.3375 4.5 39.75V41.25C4.5 41.6625 4.8375 42 5.25 42C5.6625 42 6 41.6625 6 41.25V39.75C6 39.3375 5.6625 39 5.25 39ZM9 39C8.5875 39 8.25 39.3375 8.25 39.75V41.25C8.25 41.6625 8.5875 42 9 42C9.4125 42 9.75 41.6625 9.75 41.25V39.75C9.75 39.3375 9.4125 39 9 39ZM12.75 42C13.1625 42 13.5 41.6625 13.5 41.25V39.75C13.5 39.3375 13.1625 39 12.75 39C12.3375 39 12 39.3375 12 39.75V41.25C12 41.6625 12.3375 42 12.75 42ZM16.5 42C16.9125 42 17.25 41.6625 17.25 41.25V39.75C17.25 39.3375 16.9125 39 16.5 39C16.0875 39 15.75 39.3375 15.75 39.75V41.25C15.75 41.6625 16.0875 42 16.5 42ZM20.25 42C20.6625 42 21 41.6625 21 41.25V39.75C21 39.3375 20.6625 39 20.25 39C19.8375 39 19.5 39.3375 19.5 39.75V41.25C19.5 41.6625 19.8375 42 20.25 42ZM24 42C24.4125 42 24.75 41.6625 24.75 41.25V39.75C24.75 39.3375 24.4125 39 24 39C23.5875 39 23.25 39.3375 23.25 39.75V41.25C23.25 41.6625 23.5875 42 24 42ZM27.75 42C28.1625 42 28.5 41.6625 28.5 41.25V39.75C28.5 39.3375 28.1625 39 27.75 39C27.3375 39 27 39.3375 27 39.75V41.25C27 41.6625 27.3375 42 27.75 42ZM31.5 42C31.9125 42 32.25 41.6625 32.25 41.25V39.75C32.25 39.3375 31.9125 39 31.5 39C31.0875 39 30.75 39.3375 30.75 39.75V41.25C30.75 41.6625 31.0875 42 31.5 42ZM35.25 42C35.6625 42 36 41.6625 36 41.25V39.75C36 39.3375 35.6625 39 35.25 39C34.8375 39 34.5 39.3375 34.5 39.75V41.25C34.5 41.6625 34.8375 42 35.25 42ZM39 42C39.4125 42 39.75 41.6625 39.75 41.25V39.75C39.75 39.3375 39.4125 39 39 39C38.5875 39 38.25 39.3375 38.25 39.75V41.25C38.25 41.6625 38.5875 42 39 42ZM42.75 42C43.1625 42 43.5 41.6625 43.5 41.25V39.75C43.5 39.3375 43.1625 39 42.75 39C42.3375 39 42 39.3375 42 39.75V41.25C42 41.6625 42.3375 42 42.75 42Z" fill="white"/>
</svg>
