<svg width="48" height="48" viewBox="0 0 48 48" fill="none" xmlns="http://www.w3.org/2000/svg">
<g clip-path="url(#clip0)">
<path d="M32.1975 16.2225C32.1225 16.0312 31.9687 15.8662 31.7775 15.7912L24.2775 12.8025C24.0975 12.7313 23.9025 12.7313 23.7225 12.8025C23.7225 12.8025 16.2262 15.7912 16.2225 15.7912C15.9487 15.9 15.75 16.1925 15.75 16.4887V25.5112C15.75 25.8187 15.9375 26.0925 16.2225 26.2087C16.2225 26.2087 23.715 29.1937 23.7225 29.1975C23.895 29.265 24.105 29.265 24.2775 29.1975L31.7775 26.2087C32.0625 26.0925 32.25 25.8187 32.25 25.5112V16.4887C32.25 16.3987 32.2313 16.3087 32.1975 16.2225ZM24 14.3062L29.4712 16.4887L24 18.6675L18.5287 16.4887L24 14.3062ZM17.25 17.595L23.25 19.9837V27.3937L17.25 25.0012V17.595ZM24.75 27.3937V19.9837L30.75 17.595V25.0012L24.75 27.3937ZM12.75 33C12.3337 33 12 33.3337 12 33.75V35.25C12 35.6662 12.3337 36 12.75 36C13.1663 36 13.5 35.6662 13.5 35.25V33.75C13.5 33.3337 13.1663 33 12.75 33ZM16.5 33C16.0837 33 15.75 33.3337 15.75 33.75V35.25C15.75 35.6662 16.0837 36 16.5 36C16.9163 36 17.25 35.6662 17.25 35.25V33.75C17.25 33.3337 16.9163 33 16.5 33ZM20.25 33C19.8337 33 19.5 33.3337 19.5 33.75V35.25C19.5 35.6662 19.8337 36 20.25 36C20.6663 36 21 35.6662 21 35.25V33.75C21 33.3337 20.6663 33 20.25 33ZM24 33C23.5837 33 23.25 33.3337 23.25 33.75V35.25C23.25 35.6662 23.5837 36 24 36C24.4162 36 24.75 35.6662 24.75 35.25V33.75C24.75 33.3337 24.4162 33 24 33ZM27.75 33C27.3337 33 27 33.3337 27 33.75V35.25C27 35.6662 27.3337 36 27.75 36C28.1662 36 28.5 35.6662 28.5 35.25V33.75C28.5 33.3337 28.1662 33 27.75 33ZM31.5 33C31.0837 33 30.75 33.3337 30.75 33.75V35.25C30.75 35.6662 31.0837 36 31.5 36C31.9162 36 32.25 35.6662 32.25 35.25V33.75C32.25 33.3337 31.9162 33 31.5 33ZM35.25 33C34.8337 33 34.5 33.3337 34.5 33.75V35.25C34.5 35.6662 34.8337 36 35.25 36C35.6662 36 36 35.6662 36 35.25V33.75C36 33.3337 35.6662 33 35.25 33ZM21.75 3H20.25C19.8337 3 19.5 3.3375 19.5 3.75C19.5 4.1625 19.8337 4.5 20.25 4.5H21.75C22.1663 4.5 22.5 4.1625 22.5 3.75C22.5 3.3375 22.1663 3 21.75 3ZM27.75 3H24.75C24.3337 3 24 3.3375 24 3.75C24 4.1625 24.3337 4.5 24.75 4.5H27.75C28.1662 4.5 28.5 4.1625 28.5 3.75C28.5 3.3375 28.1662 3 27.75 3ZM24 42C23.1712 42 22.5 42.6712 22.5 43.5C22.5 44.3287 23.1712 45 24 45C24.8287 45 25.5 44.3287 25.5 43.5C25.5 42.6712 24.8287 42 24 42Z" fill="white"/>
<path d="M47.8463 30.7237L41.2163 16.1025C40.8375 15.4237 40.0613 15 39.195 15H39V4.575C39 2.05125 36.9488 0 34.425 0H13.575C11.0513 0 9.00004 2.05125 9.00004 4.575V15H8.80504C7.93879 15 7.16255 15.4237 6.75754 16.1587L0.183793 30.6675C-0.0637067 31.1137 -0.0599567 31.6163 0.191294 32.0475C0.536294 32.6363 1.30504 33 2.19379 33H9.00004V43.425C9.00004 45.9487 11.0513 48 13.575 48H34.425C36.9488 48 39 45.9487 39 43.425V33H45.8063C46.695 33 47.4638 32.6363 47.8088 32.0475C48.06 31.6163 48.0638 31.1137 47.8463 30.7237ZM2.19379 31.5C1.84129 31.5 1.62004 31.3987 1.52629 31.3275L8.09629 16.8337C8.20504 16.635 8.49754 16.5 8.80504 16.5H9.00004V31.5H2.19379ZM10.5 4.575C10.5 2.88 11.88 1.5 13.575 1.5H34.425C36.12 1.5 37.5 2.88 37.5 4.575V6H10.5V4.575ZM10.5 7.5H37.5V39H10.5V7.5ZM34.425 46.5H13.575C11.88 46.5 10.5 45.12 10.5 43.425V40.5H37.5V43.425C37.5 45.12 36.12 46.5 34.425 46.5ZM45.8063 31.5H39V16.5H39.195C39.5025 16.5 39.795 16.635 39.8775 16.7775L46.4738 31.3275C46.3838 31.395 46.1625 31.5 45.8063 31.5Z" fill="white"/>
</g>
<defs>
<clipPath id="clip0">
<rect width="48" height="48" fill="white"/>
</clipPath>
</defs>
</svg>
