<svg width="140" height="32" viewBox="0 0 140 32" fill="none" xmlns="http://www.w3.org/2000/svg">
<path d="M8.01699 0.849256H0L2.54777 3.73673V21.2314L0 24.1189H7.33758C14.1316 24.1189 17.8344 21.5711 17.8344 17.4607C17.8344 14.1316 15.3546 11.9236 10.7346 11.482C14.0297 10.8365 16.4756 8.90021 16.4756 6.01274C16.4756 2.78556 13.4862 0.849256 8.01699 0.849256ZM7.30361 11.3461H6.96391V1.73248H7.30361C10.5987 1.73248 11.9915 3.36306 11.9915 6.2845C11.9915 8.93418 10.7686 11.3461 7.30361 11.3461ZM7.60934 23.2357H6.96391V12.1953H7.84713C11.6518 12.1953 13.2824 14.1316 13.2824 17.4607C13.2824 21.2314 11.0403 23.2357 7.60934 23.2357Z" fill="#272929"/>
<path d="M25.1247 17.8684V7.43949H18.5005L21.0483 10.0552V19.0234C21.0483 22.2166 22.6789 24.4586 25.4644 24.4586C27.3668 24.4586 28.9294 23.3036 29.9825 21.6051V24.3227L36.3689 24.1189L34.0589 21.673V7.43949H27.4687L29.9825 10.0552V20.6879C29.2351 21.707 28.3179 22.2845 27.4347 22.2845C25.4984 22.2845 25.1247 20.62 25.1247 17.8684Z" fill="#272929"/>
<path d="M46.5186 24.1189H55.6226L53.0409 21.5372V12.5011C53.0409 9.30786 51.4103 7.06582 48.6247 7.06582C47.2659 7.06582 45.0579 8.1189 43.699 10.2251V7.13376L37.3126 9.40977L39.6226 12.0255V21.5372L37.0409 24.1189H46.1449L43.699 21.5372V10.9045C44.7861 9.44374 46.077 9.20594 46.6545 9.20594C48.5908 9.20594 48.9644 10.8705 48.9644 13.6561V21.5372L46.5186 24.1189Z" fill="#272929"/>
<path d="M70.3288 4.14437L70.1929 4.1104L65.8787 7.23567C65.573 7.13376 65.3352 7.06582 64.418 7.06582C60.4095 7.06582 57.1483 9.88535 57.1483 13.4862C57.1483 15.6943 58.4053 17.4947 60.4774 18.3439C58.2014 19.5329 57.1483 20.9597 57.1483 22.3185C57.1483 23.5754 58.0316 24.5945 59.1866 25.0701C57.3522 25.8514 56.2991 26.7006 56.2991 28.1614C56.2991 30.3015 58.8469 32 62.7534 32C67.9509 32 71.0762 28.4671 71.0762 24.4926C71.0762 23.2357 70.7704 22.4883 70.2948 21.707H61.7683C60.6473 21.707 59.8999 21.2994 59.8999 20.2463C59.8999 19.6348 60.1377 19.1253 61.1568 18.5478C61.5305 18.7176 62.0061 18.8195 63.0252 18.8195C67.0677 18.8195 70.2609 15.8301 70.2609 12.2633C70.2609 11.0064 69.8532 9.88535 69.0719 8.96815C69.8532 7.33758 70.159 6.14862 70.3288 4.14437ZM62.9573 7.77919C64.5539 7.77919 65.8787 10.4968 65.8787 14.3015C65.8787 16.6794 65.505 18.1741 64.2821 18.1741C62.6855 18.1741 61.4965 15.3885 61.4965 11.414C61.4965 9.20595 61.7004 7.77919 62.9573 7.77919ZM60.0019 25.5456H68.0528C68.3925 25.8853 68.5284 26.8705 68.5284 27.482C68.5284 29.9958 65.9127 31.3885 63.229 31.3885C60.2736 31.3885 58.8808 29.9618 58.8808 27.8556C58.8808 26.7686 59.2545 26.1231 60.0019 25.5456Z" fill="#272929"/>
<path d="M81.039 21.2654V24.1189H87.6632L85.1494 21.9108H85.1154V10.0552L85.8628 7.47346H73.1919V12.9087H73.4297C75.4679 9.51168 77.0305 8.1189 78.8649 8.1189C80.5295 8.1189 81.039 9.23992 81.039 13.2484C74.5507 15.8301 72.3766 17.6306 72.3766 20.552C72.3766 22.862 73.7014 24.4586 75.8076 24.4586C77.2683 24.4586 78.5252 23.7113 81.039 21.2654ZM81.039 13.9618V20.4501C79.952 21.5711 79.3065 21.7749 78.6611 21.7749C77.4382 21.7749 76.8607 21.0276 76.8607 19.431C76.8607 17.2569 77.9477 15.4904 81.039 13.9618Z" fill="#272929"/>
<path d="M90.8604 9.17197V21.1975L88.3466 24.1189H97.4506L94.9368 21.1975V0L88.5504 1.9363L90.8604 4.55202V5.84289L88.5504 6.55626L90.8604 9.17197Z" fill="#272929"/>
<path d="M113.743 15.0488C113.743 11.414 111.739 7.06582 107.051 7.06582C101.956 7.06582 98.4567 11.7537 98.4567 16.5435C98.4567 20.2123 100.393 24.5265 105.149 24.5265C110.176 24.5265 113.743 19.8726 113.743 15.0488ZM105.217 8.01698C107.799 8.01698 109.497 13.3163 109.497 18.1401C109.497 21.0616 108.852 23.5754 107.017 23.5754C104.707 23.5754 102.771 18.7516 102.771 13.4522C102.771 10.7346 103.348 8.01698 105.217 8.01698Z" fill="#272929"/>
<path d="M113.644 7.47346L115.886 9.88535L121.831 24.8662H122.578L126.892 13.9278L131.206 24.8662H131.954L137.729 9.23991L139.733 7.47346H133.686L136.744 9.23991L133.007 19.397L129.168 9.30786L131.988 7.47346H123.02L125.262 9.88535L126.451 12.569L123.631 19.7028L119.657 9.30786L122.646 7.47346H113.644Z" fill="#272929"/>
</svg>
