<svg xmlns="http://www.w3.org/2000/svg" width="48" height="50" viewBox="0 0 48 50">
  <g fill="none" transform="translate(1 1)">
    <path stroke="#000" stroke-linejoin="round" stroke-width="1.5" d="M29.6324727 33.8181818L29.6324727 46.3314545C29.6324727 47.1892364 28.8993818 47.9072727 27.9372 47.9918182 26.9750182 48.0763636 26.0974909 47.4998182 25.9078909 46.6587273L24.1779273 33.8181818M45.9961091 30.5454545L45.9961091 46.3088727C45.9961091 47.1782182 45.2630182 47.9059636 44.3008364 47.9917091 43.3386545 48.0773455 42.4611273 47.4930545 42.2715273 46.6405091L40.5415636 33.6256364M3.99609818 30.5454545L.223832727 45.7510909C.0207272727 46.6572.507861818 47.5766182 1.35783273 47.8913455 2.20780364 48.2060727 3.15208364 47.8167273 3.55603636 46.9849091L9.45065455 33.8181818"/>
    <path stroke="#000" stroke-width="1.5" d="M30.1779273,19.0909091 L28.7883273,4.7514 C28.4349818,2.03361818 26.1199636,0 23.3792727,0 L8.68701818,0 C5.39530909,0 2.26267636,3.02875636 2.68700727,6.29294182 L5.06349091,16.7534545 M11.6324727,0 L5.45573455,0 C2.10905455,0 -0.448396364,2.98602545 0.0660109091,6.29294182 L2.62986545,22.0610182 M2.65051636,22.188 L3.79698545,29.2389818 C4.22623636,31.8789818 6.50625818,33.8181818 9.18087273,33.8181818 L25.6514182,33.8181818 M2.65051636,22.188 L2.62986545,22.0610182 M2.65051636,22.188 C2.64310909,22.1456727 2.63622545,22.1032364 2.62986545,22.0610182 M2.62986545,22.0610182 C2.19486545,19.3857818 3.45064364,15.8181818 7.91552727,16.3869818 L27.0514909,18.1939636 C27.8852727,18.2726182 28.6401818,18.5971636 29.2456364,19.0909091 M29.2456364,19.0909091 L42.0912,20.0628 C44.3112,20.2974545 45.9961091,22.1698909 45.9961091,24.4022182 L45.9961091,30.5454545 C45.9961091,32.3529818 44.5308,33.8181818 42.7233818,33.8181818 L25.6514182,33.8181818 M29.7108212,19.307688 L39.6912,20.0628 C41.9112,20.2974545 43.5961091,22.1698909 43.5961091,24.4022182 L43.5961091,30.5454545 C43.5961091,32.3529818 42.1308,33.8181818 40.3233818,33.8181818 L23.2514182,33.8181818 M29.2456364,19.0909091 C30.1519636,19.83 30.7233818,20.9480727 30.7233818,22.188 L30.7233818,28.8028364 C30.7233818,31.5727636 28.4525455,33.8181818 25.6514182,33.8181818 M4.71552727,16.3869818 L23.8514909,18.1939636 C24.6852727,18.2726182 25.4401818,18.5971636 26.0456364,19.0909091 M26.0456364,19.0909091 C26.9519636,19.83 27.5233818,20.9480727 27.5233818,22.188 L27.5233818,28.8028364 C27.5233818,31.5727636 25.2525455,33.8181818 22.4514182,33.8181818"/>
    <path stroke="#000" stroke-width="1.5" d="M31.2,27.2727273 L40.3233818,27.2727273 C42.1308,27.2727273 43.5961091,28.7379273 43.5961091,30.5454545 C43.5961091,32.3529818 42.1308,33.8181818 40.3233818,33.8181818 L20.6870182,33.8181818"/>
    <rect width="2.182" height="2.182" x="12.178" y="6.545" fill="#000" rx="1.091"/>
    <rect width="2.182" height="2.182" x="20.905" y="6.545" fill="#000" rx="1.091"/>
  </g>
</svg>
