<svg width="48" height="48" viewBox="0 0 48 48" fill="none" xmlns="http://www.w3.org/2000/svg">
<path d="M6.9 36.4875C6.705 36.4875 6.51375 36.4125 6.37125 36.2663C6.16125 36.06 6.09375 35.7525 6.195 35.4788C6.915 33.5288 7.36125 31.4925 7.5225 29.4225C2.80125 26.685 0 22.305 0 17.625C0 9.5625 8.2425 3 18.375 3C28.4587 3 36.7012 9.5325 36.75 17.5613V17.565V17.625C36.75 25.6875 28.5112 32.25 18.3825 32.25C17.1412 32.25 15.9075 32.1525 14.7037 31.9538C12.4913 33.9038 9.95625 35.4113 7.15875 36.4425C7.07625 36.4725 6.98625 36.4875 6.9 36.4875ZM18.375 4.5C9.07125 4.5 1.5 10.3875 1.5 17.625C1.5 21.885 4.1775 25.89 8.6625 28.3463C8.9175 28.485 9.0675 28.755 9.0525 29.0475C8.9475 30.8738 8.63625 32.6775 8.1225 34.4288C10.2675 33.465 12.2325 32.1825 13.9725 30.6C14.145 30.4425 14.3812 30.3788 14.61 30.4163C15.84 30.6375 17.1075 30.75 18.375 30.75C27.6825 30.75 35.25 24.8625 35.25 17.625L36 17.565L35.25 17.5688C35.2087 10.3613 27.6375 4.5 18.375 4.5Z" fill="#068466"/>
<path d="M43.7474 45.255C43.6611 45.255 43.5711 45.24 43.4886 45.21C40.7886 44.2125 38.3286 42.7687 36.1686 40.9162C35.0136 41.1375 33.8249 41.25 32.6249 41.25C25.4324 41.25 19.2824 37.3275 17.6624 31.7062C17.5949 31.4812 17.6399 31.2375 17.7824 31.05C17.9249 30.8587 18.1461 30.75 18.3824 30.75C27.6824 30.75 35.2499 24.8625 35.2499 17.625C35.2499 17.4037 35.3511 17.16 35.5199 17.0175C35.6924 16.875 35.9211 16.785 36.1386 16.8262C43.1211 18.135 47.9999 23.0887 47.9999 28.875C47.9999 32.3212 46.2224 35.5987 43.1099 37.9275C43.2486 40.1025 43.6986 42.225 44.4524 44.2425C44.5536 44.5162 44.4861 44.8275 44.2799 45.0337C44.1374 45.1762 43.9424 45.255 43.7474 45.255ZM36.3824 39.36C36.5624 39.36 36.7424 39.4275 36.8774 39.5475C38.5686 41.0437 40.4586 42.2625 42.5211 43.1925C41.9886 41.3812 41.6774 39.5062 41.5874 37.5937C41.5761 37.3387 41.6961 37.095 41.9061 36.945C44.8274 34.89 46.4999 31.95 46.4999 28.875C46.4999 24.0562 42.5174 19.875 36.7161 18.4837C36.1424 25.9012 28.6911 31.8112 19.4286 32.2275C21.2549 36.6375 26.6174 39.75 32.6249 39.75C33.8474 39.75 35.0586 39.6262 36.2249 39.375C36.2774 39.3637 36.3299 39.36 36.3824 39.36Z" fill="#068466"/>
<path d="M32.625 41.25C25.4325 41.25 19.2825 37.3275 17.6625 31.7062L19.1025 31.29C20.5162 36.195 26.2012 39.75 32.625 39.75V41.25ZM21.5437 28.215C21.1837 28.215 20.8687 27.96 20.805 27.5962L20.5425 26.1187C20.4712 25.71 20.7412 25.32 21.15 25.2487C21.5625 25.1737 21.9487 25.4475 22.02 25.8562L22.2825 27.3337C22.3537 27.7425 22.0837 28.1287 21.675 28.2037C21.63 28.2113 21.585 28.215 21.5437 28.215ZM25.3575 27.0562C25.0725 27.0562 24.7987 26.8913 24.675 26.6137L24.0637 25.2412C23.895 24.8662 24.0637 24.42 24.4425 24.2512C24.8212 24.0825 25.2637 24.255 25.4325 24.6337L26.0437 26.0025C26.2125 26.3812 26.0437 26.8237 25.665 26.9925C25.5637 27.0375 25.4625 27.0562 25.3575 27.0562ZM28.77 24.915C28.56 24.915 28.3537 24.8287 28.2075 24.66L27.2137 23.535C26.94 23.2237 26.97 22.7513 27.2812 22.4737C27.5925 22.2037 28.065 22.23 28.3387 22.5412L29.3325 23.6662C29.6062 23.9775 29.5762 24.4537 29.265 24.7275C29.1225 24.8513 28.9462 24.915 28.77 24.915ZM31.2412 21.6412C31.14 21.6412 31.0312 21.6187 30.9337 21.5737L29.5687 20.955C29.19 20.7825 29.025 20.3362 29.1937 19.9612C29.3662 19.5825 29.8125 19.4175 30.1875 19.59L31.5525 20.2087C31.9312 20.3813 32.0962 20.8275 31.9237 21.2025C31.8 21.48 31.5262 21.6412 31.2412 21.6412ZM4.5 18.9262C4.08375 18.9262 3.75 18.5887 3.75 18.1762C3.75 14.07 6.66375 10.2675 11.3587 8.2575C11.7337 8.0925 12.18 8.26875 12.3412 8.65125C12.5062 9.03 12.33 9.4725 11.9475 9.63375C7.755 11.4337 5.25 14.625 5.25 18.1762C5.25 18.5925 4.91625 18.9262 4.5 18.9262ZM15.1725 8.6175C14.82 8.6175 14.5087 8.37 14.4375 8.01375C14.3587 7.60875 14.6212 7.215 15.0262 7.1325C16.3162 6.8775 17.6587 6.75 19.02 6.75C19.4362 6.75 19.77 7.0875 19.77 7.5C19.77 7.9125 19.4362 8.25 19.02 8.25C17.7562 8.25 16.5112 8.37 15.315 8.60625C15.2662 8.61375 15.2213 8.6175 15.1725 8.6175ZM41.9962 32.3737C41.8837 32.3737 41.7675 32.3475 41.6625 32.295C41.2912 32.1112 41.1412 31.6612 41.325 31.29C41.775 30.39 42 29.4525 42 28.5C42 28.0837 42.3337 27.75 42.75 27.75C43.1662 27.75 43.5 28.0837 43.5 28.5C43.5 29.685 43.2187 30.8475 42.6675 31.9575C42.5362 32.22 42.27 32.3737 41.9962 32.3737ZM33 37.5C32.5837 37.5 32.25 37.1662 32.25 36.75C32.25 36.3337 32.5837 36 33 36C35.4937 36 37.8187 35.1412 39.5512 33.585C39.8587 33.3112 40.3312 33.3337 40.6125 33.6412C40.8862 33.9487 40.8637 34.425 40.5525 34.7025C38.5462 36.5062 35.865 37.5 33 37.5Z" fill="#068466"/>
</svg>
