<svg width="48" height="48" viewBox="0 0 48 48" fill="none" xmlns="http://www.w3.org/2000/svg">
<path d="M30.7499 21H42.7499C43.9911 21 44.9999 19.9913 44.9999 18.75V6.75C44.9999 5.50875 43.9911 4.5 42.7499 4.5H30.7499C29.5086 4.5 28.4999 5.50875 28.4999 6.75V18.75C28.4999 19.9913 29.5086 21 30.7499 21ZM29.9999 6.75C29.9999 6.3375 30.3374 6 30.7499 6H42.7499C43.1624 6 43.4999 6.3375 43.4999 6.75V18.75C43.4999 19.1625 43.1624 19.5 42.7499 19.5H30.7499C30.3374 19.5 29.9999 19.1625 29.9999 18.75V6.75ZM44.7036 35.16L38.3399 28.7963C37.4886 27.945 36.0074 27.945 35.1599 28.7963L28.7961 35.16C28.3686 35.5838 28.1361 36.15 28.1361 36.75C28.1361 37.3538 28.3686 37.9163 28.7961 38.34L35.1599 44.7038C35.5836 45.1313 36.1499 45.3638 36.7499 45.3638C37.3499 45.3638 37.9161 45.1313 38.3399 44.7038L44.7036 38.34C45.1311 37.9163 45.3636 37.35 45.3636 36.75C45.3636 36.15 45.1311 35.5838 44.7036 35.16ZM43.6424 37.2788L37.2786 43.6463C36.9974 43.9275 36.5024 43.9275 36.2174 43.6463L29.8536 37.2788C29.7149 37.14 29.6361 36.9525 29.6361 36.75C29.6361 36.5475 29.7149 36.36 29.8536 36.2213L36.2211 29.8575C36.3599 29.715 36.5474 29.6363 36.7499 29.6363C36.9524 29.6363 37.1399 29.715 37.2786 29.8575L43.6424 36.2213C43.7849 36.36 43.8636 36.5513 43.8636 36.75C43.8636 36.9525 43.7849 37.14 43.6424 37.2788ZM11.9999 3.75C9.52861 3.75 7.28611 4.75125 5.65861 6.37125C5.65111 6.375 5.64361 6.37875 5.63611 6.38625C5.62861 6.39375 5.62486 6.40125 5.62111 6.40875C4.00111 8.03625 2.99986 10.2788 2.99986 12.75C2.99986 17.7113 7.03861 21.75 11.9999 21.75C14.4711 21.75 16.7136 20.7488 18.3411 19.1288C18.3486 19.125 18.3561 19.1213 18.3636 19.1138C18.3711 19.1063 18.3711 19.0988 18.3786 19.0913C19.9986 17.4638 20.9999 15.2213 20.9999 12.75C20.9999 7.78875 16.9611 3.75 11.9999 3.75ZM11.9999 20.25C7.86361 20.25 4.49986 16.8863 4.49986 12.75C4.49986 12.7275 4.50361 12.7013 4.50361 12.6788L12.0711 20.2463C12.0486 20.2463 12.0224 20.25 11.9999 20.25ZM13.9349 19.9875L4.76236 10.815C5.03986 9.7725 5.53111 8.81625 6.19486 8.00625L16.7436 18.555C15.9299 19.2188 14.9774 19.71 13.9349 19.9875ZM17.8049 17.4938L7.25611 6.945C8.06986 6.28125 9.02236 5.79 10.0649 5.5125L19.2374 14.685C18.9599 15.7275 18.4686 16.68 17.8049 17.4938ZM19.4961 12.8213L11.9286 5.25375C11.9511 5.25375 11.9774 5.25 11.9999 5.25C16.1361 5.25 19.4999 8.61375 19.4999 12.75C19.4999 12.7725 19.4961 12.7987 19.4961 12.8213ZM12.5474 29.2463C12.2774 28.7775 11.7899 28.5 11.2499 28.5C10.7099 28.5 10.2224 28.7775 9.95236 29.2463L2.99986 41.2688C2.72986 41.7375 2.72986 42.3 2.99986 42.7688C3.27361 43.2375 3.75736 43.5188 4.30111 43.5188H18.1986C18.7424 43.5188 19.2299 43.2375 19.4999 42.7688C19.7699 42.3 19.7699 41.7375 19.4999 41.2688L12.5474 29.2463ZM4.30111 42.0188L11.2499 30L18.1986 42.0188H4.30111Z" fill="white"/>
<path d="M33 35.25C32.5875 35.25 32.25 35.5875 32.25 36V37.5C32.25 37.9125 32.5875 38.25 33 38.25C33.4125 38.25 33.75 37.9125 33.75 37.5V36C33.75 35.5875 33.4125 35.25 33 35.25ZM36.75 35.25C36.3375 35.25 36 35.5875 36 36V37.5C36 37.9125 36.3375 38.25 36.75 38.25C37.1625 38.25 37.5 37.9125 37.5 37.5V36C37.5 35.5875 37.1625 35.25 36.75 35.25ZM40.5 35.25C40.0875 35.25 39.75 35.5875 39.75 36V37.5C39.75 37.9125 40.0875 38.25 40.5 38.25C40.9125 38.25 41.25 37.9125 41.25 37.5V36C41.25 35.5875 40.9125 35.25 40.5 35.25Z" fill="white"/>
</svg>
