<svg xmlns="http://www.w3.org/2000/svg" xmlns:xlink="http://www.w3.org/1999/xlink" width="524" height="109" viewBox="0 0 524 109">
  <defs>
    <rect id="full_logo_dark-a" width="109.018" height="109.018" x=".511" y=".361"/>
  </defs>
  <g fill="none" fill-rule="evenodd" transform="translate(-1 -1)">
    <g transform="translate(.48 .63)">
      <mask id="full_logo_dark-b" fill="#fff">
        <use xlink:href="#full_logo_dark-a"/>
      </mask>
      <path fill="#FFA000" d="M34.4217134,84.1543363 L9.30283876,84.1543363 C9.30283876,98.0271077 20.548942,109.273211 34.4217134,109.273211 L34.4217134,109.273211 L34.4217134,109.273211 L34.4217134,84.1543363 Z" mask="url(#full_logo_dark-b)"/>
      <polygon fill="#FFA000" points="72.091 84.154 46.972 84.154 46.972 109.273 72.091 109.273" mask="url(#full_logo_dark-b)"/>
      <polygon fill="#FFA000" points="72.091 46.485 46.972 46.485 46.972 71.604 72.091 71.604" mask="url(#full_logo_dark-b)"/>
      <path fill="#FFA000" d="M84.6409124 8.81626267L84.6409124 8.81626267 84.6409124 8.81626267 84.6409124 33.9351373 109.759787 33.9351373C109.759787 20.0623659 98.5136838 8.81626267 84.6409124 8.81626267zM109.707686 84.1188379L84.5888118 84.1188379 84.5888118 109.237713C98.4615832 109.237713 109.707686 97.9916093 109.707686 84.1188379L109.707686 84.1188379 109.707686 84.1188379z" mask="url(#full_logo_dark-b)"/>
      <polygon fill="#FFA000" points="109.76 46.485 84.641 46.485 84.641 71.604 109.76 71.604" mask="url(#full_logo_dark-b)"/>
      <path fill="#FFA000" d="M15.1546932,23.9160439 L7.25442658,29.6600577 C6.78156908,30.0038562 6.11953858,29.8992333 5.77574006,29.4263758 C5.5834771,29.161939 5.52419362,28.8234992 5.61512596,28.5094559 L8.44640852,18.7313597 C8.56598382,18.3183953 8.4239128,17.8741272 8.08690802,17.607171 L0.249018386,11.3984374 C-0.209251549,11.0354218 -0.286470473,10.3696384 0.0765450939,9.91136846 C0.272426789,9.6640879 0.568389878,9.51705626 0.88378204,9.51034084 L10.622435,9.3029826 C11.0699195,9.29345463 11.4630505,9.00351573 11.6043404,8.5788154 L14.772756,-0.94506112 C14.9573065,-1.49979777 15.5566171,-1.79989293 16.1113538,-1.61534242 C16.4279234,-1.51002562 16.6763183,-1.26163077 16.7816351,-0.94506112 L19.9500506,8.5788154 C20.0913405,9.00351573 20.4844715,9.29345463 20.931956,9.3029826 L30.670609,9.51034084 C31.255106,9.52278612 31.7188455,10.0067035 31.7064003,10.5912005 C31.6996848,10.9065926 31.5526532,11.2025557 31.3053726,11.3984374 L23.467483,17.607171 C23.1304782,17.8741272 22.9884072,18.3183953 23.1079825,18.7313597 L25.9392651,28.5094559 C26.1018674,29.0710181 25.7784465,29.6580695 25.2168843,29.8206718 C24.902841,29.9116041 24.5644012,29.8523207 24.2999644,29.6600577 L16.3996978,23.9160439 C16.0285602,23.6462025 15.5258308,23.6462025 15.1546932,23.9160439 Z" mask="url(#full_logo_dark-b)" transform="rotate(-46 15.777 15.627)"/>
      <path fill="#FFA000" d="M58.4194805,27.6387653 L52.187358,32.1725805 C51.8137997,32.4443409 51.2906656,32.3618174 51.0189052,31.9882591 C50.8669071,31.7793246 50.8199983,31.511872 50.8918208,31.2636814 L53.1257891,23.5439499 C53.2201845,23.2177556 53.1079988,22.8668634 52.8418759,22.6559325 L46.6569941,17.7537511 C46.2949685,17.466807 46.2341028,16.940713 46.521047,16.5786873 C46.6758268,16.383408 46.9096126,16.2673051 47.1587364,16.2619976 L54.8424238,16.0982985 C55.1960588,16.0907644 55.5067249,15.8615994 55.6183237,15.5259505 L58.1178303,8.00833666 C58.2635783,7.56997945 58.7370891,7.33277276 59.1754463,7.47852071 C59.4257,7.56172674 59.6220562,7.75808297 59.7052623,8.00833666 L62.2047689,15.5259505 C62.3163677,15.8615994 62.6270338,16.0907644 62.9806688,16.0982985 L70.6643562,16.2619976 C71.1262033,16.2718371 71.4926278,16.6542147 71.4827882,17.1160617 C71.4774807,17.3651855 71.3613778,17.5989713 71.1660985,17.7537511 L64.9812167,22.6559325 C64.7150938,22.8668634 64.602908,23.2177556 64.6973035,23.5439499 L66.9312718,31.2636814 C67.0596846,31.7074264 66.8040573,32.171252 66.3603123,32.2996648 C66.1121216,32.3714873 65.8446691,32.3245785 65.6357346,32.1725805 L59.4036121,27.6387653 C59.1102739,27.4253644 58.7128187,27.4253644 58.4194805,27.6387653 Z" mask="url(#full_logo_dark-b)" transform="rotate(-6 58.912 21.092)"/>
      <path fill="#FFA000" d="M21.2549912,65.30775 L15.0228687,69.8415652 C14.6493104,70.1133256 14.1261762,70.0308021 13.8544158,69.6572438 C13.7024177,69.4483093 13.655509,69.1808567 13.7273314,68.9326661 L15.9612997,61.2129346 C16.0556952,60.8867403 15.9435094,60.5358481 15.6773865,60.3249172 L9.49250475,55.4227358 C9.13047909,55.1357917 9.06961348,54.6096977 9.3565576,54.247672 C9.51133741,54.0523927 9.74512324,53.9362898 9.994247,53.9309823 L17.6779344,53.7672832 C18.0315694,53.7597491 18.3422355,53.5305841 18.4538343,53.1949352 L20.953341,45.6773214 C21.0990889,45.2389641 21.5725997,45.0017575 22.0109569,45.1475054 C22.2612106,45.2307114 22.4575669,45.4270677 22.5407729,45.6773214 L25.0402795,53.1949352 C25.1518783,53.5305841 25.4625444,53.7597491 25.8161794,53.7672832 L33.4998668,53.9309823 C33.9617139,53.9408218 34.3281384,54.3231994 34.3182989,54.7850464 C34.3129913,55.0341702 34.1968884,55.267956 34.0016091,55.4227358 L27.8167273,60.3249172 C27.5506044,60.5358481 27.4384187,60.8867403 27.5328142,61.2129346 L29.7667824,68.9326661 C29.8951952,69.3764111 29.6395679,69.8402367 29.1958229,69.9686495 C28.9476323,70.040472 28.6801797,69.9935632 28.4712452,69.8415652 L22.2391227,65.30775 C21.9457845,65.0943491 21.5483293,65.0943491 21.2549912,65.30775 Z" mask="url(#full_logo_dark-b)" transform="rotate(-86 21.747 58.761)"/>
    </g>
    <g transform="translate(136 12.047)">
      <path fill="#1D2B41" fill-rule="nonzero" d="M22.2059072,78.7448609 L22.2059072,68.8426077 L16.7591753,68.8426077 C13.0721567,68.8426077 11.8152186,67.4999293 11.8152186,64.3949855 L11.8152186,41.9051224 L22.2059072,41.9051224 L22.2059072,32.2546215 L11.8152186,32.2546215 L11.8152186,16.6459852 L0,16.6459852 L0,64.3110681 C0,74.9685779 5.94950721,78.7448609 14.8318701,78.7448609 L22.2059072,78.7448609 Z M46.436676,78.7448609 L46.436676,53.0661366 C46.436676,45.597488 50.542674,41.5694528 56.9111606,41.5694528 C63.1120554,41.5694528 67.2180533,45.597488 67.2180533,53.0661366 L67.2180533,78.7448609 L78.949476,78.7448609 L78.949476,51.471706 C78.949476,38.6323439 71.3240513,31.5832823 60.8495667,31.5832823 C54.6486719,31.5832823 49.4533276,34.1008043 46.436676,38.0449221 L46.436676,16.6459852 L34.7052534,16.6459852 L34.7052534,78.7448609 L46.436676,78.7448609 Z M114.913388,79.5001175 C126.393423,79.5001175 134.102643,72.7028081 136.61652,64.1432333 L123.963342,64.1432333 C122.455016,67.2481771 119.689753,69.7656991 114.662,69.7656991 C108.796289,69.7656991 104.10372,65.9054987 103.517148,59.024272 L137.454478,59.024272 C137.705866,57.5137588 137.789662,56.0032456 137.789662,54.4927324 C137.789662,40.6463615 128.320728,31.4993649 114.913388,31.4993649 C101.170864,31.4993649 91.618134,40.8141963 91.618134,55.4997412 C91.618134,70.1013687 101.422252,79.5001175 114.913388,79.5001175 Z M125.63926,51.1360364 L103.600944,51.1360364 C104.522699,44.758314 108.96388,41.1498658 114.578204,41.1498658 C120.611507,41.1498658 125.471668,45.0100662 125.63926,51.1360364 Z M162.440557,78.7448609 L162.440557,55.5836586 C162.440557,46.6044968 166.630351,43.91914 173.585408,43.91914 L176.685856,43.91914 L176.685856,31.5832823 C170.233573,31.5832823 165.373412,34.6882261 162.440557,39.4715179 L162.440557,32.2546215 L150.709134,32.2546215 L150.709134,78.7448609 L162.440557,78.7448609 Z M204.176063,79.5001175 C211.5501,79.5001175 216.829241,75.9755867 219.594505,71.9475515 L219.594505,78.7448609 L231.409723,78.7448609 L231.409723,32.2546215 L219.594505,32.2546215 L219.594505,38.8840961 C216.829241,35.0238957 211.717692,31.4993649 204.259859,31.4993649 C192.444641,31.4993649 183.059503,40.8141963 183.059503,55.3319064 C183.059503,69.8496165 192.444641,79.5001175 204.176063,79.5001175 Z M205.59486,69.1782773 C199.310169,69.1782773 193.360662,64.1432333 193.360662,55.3319064 C193.360662,46.5205794 199.310169,41.821205 205.59486,41.821205 C212.047142,41.821205 217.912853,46.6884142 217.912853,55.4997412 C217.912853,64.3110681 212.047142,69.1782773 205.59486,69.1782773 Z M269.123143,79.5001175 C281.441137,79.5001175 290.910071,69.8496165 290.910071,55.5836586 C290.910071,41.2337832 281.524933,32.0028693 269.123143,32.0028693 C260.994943,32.0028693 254.877844,36.1987393 251.944989,41.3177006 L251.944989,16.6459852 L244.319564,16.6459852 L244.319564,78.7448609 L251.944989,78.7448609 L251.944989,70.2692035 C254.794048,75.3042475 260.743556,79.5001175 269.123143,79.5001175 Z M269.212673,72.7867255 C260.916881,72.7867255 253.62664,66.4929205 253.62664,55.667576 C253.62664,45.0100662 260.916881,38.6323439 269.212673,38.6323439 C277.676056,38.6323439 284.798706,44.758314 284.798706,55.5836586 C284.798706,66.4090031 277.676056,72.7867255 269.212673,72.7867255 Z M309.481798,78.7765707 L309.481798,32.7898357 L301.856373,32.7898357 L301.856373,78.7765707 L309.481798,78.7765707 Z M341.518193,78.7448609 L341.518193,72.2832211 L335.90387,72.2832211 C331.211301,72.2832211 329.535383,70.6887905 329.535383,66.1572509 L329.535383,39.0519309 L341.518193,39.0519309 L341.518193,32.7581259 L329.535383,32.7581259 L329.535383,21.1775247 L321.909958,21.1775247 L321.909958,66.1572509 C321.909958,75.3881649 326.518732,78.7448609 334.646932,78.7448609 L341.518193,78.7448609 Z M371.868928,79.5001175 C382.008229,79.5001175 388.628103,73.7937343 388.628103,66.2411683 C388.29292,49.793358 361.645831,55.7514934 361.645831,44.8422314 C361.645831,41.1498658 364.997666,38.4645091 370.61199,38.4645091 C376.729089,38.4645091 380.248516,41.821205 380.583699,46.436662 L388.209124,46.436662 C387.706349,37.4575003 381.002679,32.0028693 370.863377,32.0028693 C360.640281,32.0028693 354.020406,37.7931699 354.020406,44.8422314 C354.020406,61.961381 381.17027,56.0032456 381.17027,66.2411683 C381.17027,70.0174513 377.818435,73.0384777 371.785132,73.0384777 C365.33285,73.0384777 361.394443,69.6817817 360.975464,65.2341595 L353.098652,65.2341595 C353.601427,73.6258995 361.143056,79.5001175 371.868928,79.5001175 Z"/>
      <path fill="#FFA000" d="M305.06394,22.138424 L298.831817,26.6722391 C298.458259,26.9439995 297.935125,26.8614761 297.663364,26.4879178 C297.511366,26.2789832 297.464457,26.0115307 297.53628,25.7633401 L299.770248,18.0436086 C299.864644,17.7174143 299.752458,17.3665221 299.486335,17.1555912 L293.301453,12.2534098 C292.939428,11.9664657 292.878562,11.4403717 293.165506,11.078346 C293.320286,10.8830667 293.554072,10.7669638 293.803195,10.7616563 L301.486883,10.5979572 C301.840518,10.5904231 302.151184,10.361258 302.262783,10.0256091 L304.762289,2.50799534 C304.908037,2.06963812 305.381548,1.83243144 305.819905,1.97817939 C306.070159,2.06138542 306.266515,2.25774165 306.349721,2.50799534 L308.849228,10.0256091 C308.960827,10.361258 309.271493,10.5904231 309.625128,10.5979572 L317.308815,10.7616563 C317.770662,10.7714958 318.137087,11.1538733 318.127247,11.6157204 C318.12194,11.8648441 318.005837,12.09863 317.810558,12.2534098 L311.625676,17.1555912 C311.359553,17.3665221 311.247367,17.7174143 311.341763,18.0436086 L313.575731,25.7633401 C313.704144,26.2070851 313.448516,26.6709107 313.004771,26.7993235 C312.756581,26.871146 312.489128,26.8242372 312.280194,26.6722391 L306.048071,22.138424 C305.754733,21.9250231 305.357278,21.9250231 305.06394,22.138424 Z"/>
    </g>
  </g>
</svg>
