<svg xmlns="http://www.w3.org/2000/svg" width="491" height="110" viewBox="0 0 491 110">
  <g fill="none" fill-rule="evenodd" transform="translate(-2 -1)">
    <g fill="#FFA000">
      <rect width="21.227" height="21.227" x="61.415" y="88.803"/>
      <path d="M91.292517 88.8027211L112.519623 88.8027211C112.519623 100.526128 103.015924 110.029827 91.292517 110.029827L91.292517 110.029827 91.292517 110.029827 91.292517 88.8027211zM32.3673469 88.8027211L53.5944532 88.8027211 53.5944532 110.029827C41.8710461 110.029827 32.3673469 100.526128 32.3673469 88.8027211L32.3673469 88.8027211 32.3673469 88.8027211zM91.292517 29.877551C103.015924 29.877551 112.519623 39.3812502 112.519623 51.1046572L112.519623 51.1046572 112.519623 51.1046572 91.292517 51.1046572 91.292517 29.877551z"/>
      <rect width="21.227" height="21.227" x="91.293" y="59.755"/>
      <rect width="21.227" height="21.227" x="62.245" y="59.755"/>
      <path d="M14.3849337,21.1324306 L8.08489619,25.5163828 C7.70866398,25.7781882 7.19143227,25.685427 6.92962684,25.3091947 C6.78467806,25.1008935 6.74299607,24.8377238 6.81648192,24.5948259 L9.0390495,17.2484184 C9.13956857,16.9161657 9.02269112,16.5564539 8.74607626,16.3467395 L2.62987137,11.7097635 C2.26461747,11.4328477 2.19300526,10.9122663 2.46992103,10.5470124 C2.62323566,10.3447893 2.86064451,10.2238235 3.11436251,10.2186531 L10.7880223,10.0622757 C11.1350755,10.0552033 11.4410646,9.8328892 11.5550362,9.5050075 L14.0750512,2.2552466 C14.2255441,1.82229781 14.698517,1.59332206 15.1314658,1.74381495 C15.3711683,1.82713545 15.559577,2.01554417 15.6428975,2.2552466 L18.1629125,9.5050075 C18.2768841,9.8328892 18.5828732,10.0552033 18.9299264,10.0622757 L26.6035862,10.2186531 C27.0618498,10.2279918 27.4257754,10.6070584 27.4164367,11.065322 C27.4112663,11.31904 27.2903004,11.5564489 27.0880773,11.7097635 L20.9718725,16.3467395 C20.6952576,16.5564539 20.5783801,16.9161657 20.6788992,17.2484184 L22.9014668,24.5948259 C23.0341964,25.0335463 22.7861418,25.4967981 22.3474214,25.6295277 C22.1045235,25.7030135 21.8413538,25.6613315 21.6330525,25.5163828 L15.333015,21.1324306 C15.048086,20.9341596 14.6698627,20.9341596 14.3849337,21.1324306 Z"/>
      <path d="M33.5612083,67.3078262 L26.7019836,70.913934 C26.2962759,71.1272272 25.7944765,70.9712444 25.5811833,70.5655366 C25.4962488,70.4039817 25.46694,70.2189333 25.4977943,70.0390392 L26.8077896,62.4011804 C26.8539653,62.1319553 26.7647074,61.8572477 26.569104,61.6665815 L21.0198747,56.2574198 C20.6916502,55.93748 20.6849342,55.4120391 21.0048739,55.0838146 C21.1322756,54.9531139 21.2992102,54.8680565 21.4798341,54.8418103 L29.1486804,53.7274617 C29.4189976,53.6881823 29.6526779,53.5184037 29.7735675,53.2734547 L33.2031798,46.3243011 C33.4060337,45.9132743 33.9036823,45.7445167 34.3147092,45.9473706 C34.4783822,46.0281481 34.6108622,46.1606281 34.6916397,46.3243011 L38.121252,53.2734547 C38.2421416,53.5184037 38.4758218,53.6881823 38.7461391,53.7274617 L46.4149854,54.8418103 C46.8685804,54.9077215 47.1828603,55.3288646 47.1169491,55.7824597 C47.0907029,55.9630836 47.0056455,56.1300181 46.8749448,56.2574198 L41.3257155,61.6665815 C41.1301121,61.8572477 41.0408541,62.1319553 41.0870298,62.4011804 L42.3970252,70.0390392 C42.4745085,70.4908014 42.1710954,70.9198397 41.7193332,70.997323 C41.5394391,71.0281772 41.3543908,70.9988685 41.1928358,70.913934 L34.3336112,67.3078262 C34.0918321,67.1807154 33.8029874,67.1807154 33.5612083,67.3078262 Z" transform="rotate(-52 33.947 59.675)"/>
      <path d="M57.6292355,30.7908194 L50.7700108,34.3969272 C50.3643031,34.6102204 49.8625037,34.4542376 49.6492105,34.0485298 C49.564276,33.8869749 49.5349672,33.7019265 49.5658215,33.5220324 L50.8758168,25.8841736 C50.9219925,25.6149485 50.8327346,25.3402409 50.6371312,25.1495747 L45.0879019,19.740413 C44.7596774,19.4204732 44.7529614,18.8950323 45.0729011,18.5668078 C45.2003028,18.4361071 45.3672374,18.3510497 45.5478613,18.3248035 L53.2167076,17.2104549 C53.4870248,17.1711755 53.7207051,17.0013969 53.8415947,16.7564479 L57.271207,9.8072943 C57.4740609,9.39626745 57.9717095,9.22750991 58.3827364,9.43036379 C58.5464094,9.51114127 58.6788894,9.64362125 58.7596669,9.8072943 L62.1892792,16.7564479 C62.3101688,17.0013969 62.543849,17.1711755 62.8141663,17.2104549 L70.4830126,18.3248035 C70.9366077,18.3907147 71.2508875,18.8118578 71.1849763,19.2654528 C71.1587301,19.4460768 71.0736727,19.6130113 70.942972,19.740413 L65.3937427,25.1495747 C65.1981393,25.3402409 65.1088814,25.6149485 65.1550571,25.8841736 L66.4650524,33.5220324 C66.5425357,33.9737946 66.2391227,34.4028329 65.7873604,34.4803162 C65.6074663,34.5111704 65.422418,34.4818617 65.2608631,34.3969272 L58.4016384,30.7908194 C58.1598593,30.6637086 57.8710146,30.6637086 57.6292355,30.7908194 Z" transform="rotate(-37 58.015 23.158)"/>
    </g>
    <g transform="translate(135 34)">
      <path fill="#FFF" fill-rule="nonzero" d="M21.4257056,65.9182583 L21.4257056,56.3639195 L16.1703439,56.3639195 C12.6128682,56.3639195 11.4000924,55.0684159 11.4000924,52.0725639 L11.4000924,30.3728792 L21.4257056,30.3728792 L21.4257056,21.0614473 L11.4000924,21.0614473 L11.4000924,6.0012183 L0,6.0012183 L0,51.9915949 C0,62.2746545 5.74047207,65.9182583 14.3107543,65.9182583 L21.4257056,65.9182583 Z M40.91097,65.9182583 L40.91097,41.1417526 C40.91097,33.935514 44.8727042,30.0490033 51.0174349,30.0490033 C57.0004621,30.0490033 60.9621964,33.935514 60.9621964,41.1417526 L60.9621964,65.9182583 L72.2814371,65.9182583 L72.2814371,39.6033421 C72.2814371,27.2150892 64.9239306,20.4136955 54.8174657,20.4136955 C48.8344385,20.4136955 43.8216319,22.8427647 40.91097,26.6483064 L40.91097,6.0012183 L29.5917293,6.0012183 L29.5917293,65.9182583 L40.91097,65.9182583 Z M102.600832,66.646979 C113.677517,66.646979 121.115876,60.0884922 123.541427,51.829657 L111.332817,51.829657 C109.877487,54.825509 107.20938,57.2545782 102.358277,57.2545782 C96.6986563,57.2545782 92.17096,53.5300054 91.604998,46.8905496 L124.349944,46.8905496 C124.592499,45.4331081 124.673351,43.9756666 124.673351,42.5182251 C124.673351,29.1583446 115.537107,20.3327265 102.600832,20.3327265 C89.3411498,20.3327265 80.1240538,29.3202825 80.1240538,43.4898528 C80.1240538,57.5784541 89.583705,66.646979 102.600832,66.646979 Z M112.949852,39.2794662 L91.6858497,39.2794662 C92.5752186,33.1258242 96.8603597,29.6441584 102.277425,29.6441584 C108.098749,29.6441584 112.788148,33.3687312 112.949852,39.2794662 Z M144.239467,65.9182583 L144.239467,43.5708217 C144.239467,34.9071416 148.282053,32.3161345 154.992746,32.3161345 L157.98426,32.3161345 L157.98426,20.4136955 C151.758677,20.4136955 147.069277,23.4095475 144.239467,28.0247789 L144.239467,21.0614473 L132.920227,21.0614473 L132.920227,65.9182583 L144.239467,65.9182583 Z M183.048293,66.646979 C190.163244,66.646979 195.256902,63.2462822 197.925009,59.3597715 L197.925009,65.9182583 L209.325101,65.9182583 L209.325101,21.0614473 L197.925009,21.0614473 L197.925009,27.4579961 C195.256902,23.7334234 190.324947,20.3327265 183.129144,20.3327265 C171.729052,20.3327265 162.673659,29.3202825 162.673659,43.3279148 C162.673659,57.3355472 171.729052,66.646979 183.048293,66.646979 Z M186.039806,56.6877954 C179.975927,56.6877954 174.235455,51.829657 174.235455,43.3279148 C174.235455,34.8261727 179.975927,30.2919102 186.039806,30.2919102 C192.265389,30.2919102 197.925009,34.9881106 197.925009,43.4898528 C197.925009,51.9915949 192.265389,56.6877954 186.039806,56.6877954 Z M245.713465,66.646979 C257.598668,66.646979 266.734912,57.3355472 266.734912,43.5708217 C266.734912,29.7251274 257.67952,20.8185403 245.713465,20.8185403 C237.870849,20.8185403 231.968673,24.866989 229.138863,29.8060963 L229.138863,6.0012183 L221.781356,6.0012183 L221.781356,65.9182583 L229.138863,65.9182583 L229.138863,57.740392 C231.887821,62.5985304 237.628293,66.646979 245.713465,66.646979 Z M244.177283,60.1694612 C236.172962,60.1694612 229.138863,54.0967882 229.138863,43.6517907 C229.138863,33.3687312 236.172962,27.2150892 244.177283,27.2150892 C252.343306,27.2150892 259.215703,33.1258242 259.215703,43.5708217 C259.215703,54.0158193 252.343306,60.1694612 244.177283,60.1694612 Z M283.794625,65.9182583 L283.794625,21.5472611 L276.437119,21.5472611 L276.437119,65.9182583 L283.794625,65.9182583 Z M316.862978,65.9182583 L316.862978,59.6836474 L311.445913,59.6836474 C306.918217,59.6836474 305.301183,58.1452369 305.301183,53.7729123 L305.301183,27.6199341 L316.862978,27.6199341 L316.862978,21.5472611 L305.301183,21.5472611 L305.301183,10.3735428 L297.943676,10.3735428 L297.943676,53.7729123 C297.943676,62.6794994 302.390521,65.9182583 310.233137,65.9182583 L316.862978,65.9182583 Z M341.441901,66.646979 C351.224959,66.646979 357.612245,61.1410889 357.612245,53.8538813 C357.288838,37.9839626 331.577991,43.7327597 331.577991,33.2067932 C331.577991,29.6441584 334.81206,27.0531513 340.229125,27.0531513 C346.131301,27.0531513 349.527073,30.2919102 349.85048,34.7452037 L357.207986,34.7452037 C356.722876,26.0815236 350.254738,20.8185403 340.47168,20.8185403 C330.607771,20.8185403 324.220485,26.4053995 324.220485,33.2067932 C324.220485,49.7244637 350.416442,43.9756666 350.416442,53.8538813 C350.416442,57.4974851 347.182373,60.4123681 341.361049,60.4123681 C335.135467,60.4123681 331.335436,57.1736092 330.931178,52.8822536 L323.331116,52.8822536 C323.816226,60.9791509 331.092881,66.646979 341.441901,66.646979 Z"/>
      <path fill="#FFA000" d="M279.76298,12.7649333 L275.689837,15.5992758 C275.501721,15.7301785 275.243105,15.6837979 275.112202,15.4956818 C275.039728,15.3915311 275.018887,15.2599463 275.05563,15.1384973 L276.492579,10.3888481 C276.542839,10.2227218 276.4844,10.0428659 276.346092,9.93800863 L272.391802,6.94007941 C272.209175,6.80162153 272.173369,6.54133083 272.311827,6.35870388 C272.388484,6.25759233 272.507189,6.1971094 272.634048,6.19452421 L277.595274,6.09342206 C277.768801,6.08988585 277.921795,5.97872879 277.978781,5.81478795 L279.608038,1.1276233 C279.683285,0.911148905 279.919771,0.796661029 280.136246,0.871907473 C280.256097,0.913567724 280.350301,1.00777209 280.391962,1.1276233 L282.021219,5.81478795 C282.078205,5.97872879 282.231199,6.08988585 282.404726,6.09342206 L287.365952,6.19452421 C287.595084,6.19919357 287.777047,6.38872686 287.772378,6.61785867 C287.769792,6.74471768 287.709309,6.8634221 287.608198,6.94007941 L283.653908,9.93800863 C283.5156,10.0428659 283.457161,10.2227218 283.507421,10.3888481 L284.94437,15.1384973 C285.010735,15.3578575 284.886708,15.5894834 284.667348,15.6558482 C284.545899,15.6925911 284.414314,15.6717502 284.310163,15.5992758 L280.23702,12.7649333 C280.094556,12.6657977 279.905444,12.6657977 279.76298,12.7649333 Z"/>
    </g>
  </g>
</svg>
