<svg width="120" height="120" viewBox="0 0 120 120" fill="none" xmlns="http://www.w3.org/2000/svg">
<path d="M8 4C8 6.20914 6.20914 8 4 8C1.79086 8 0 6.20914 0 4C0 1.79086 1.79086 0 4 0C6.20914 0 8 1.79086 8 4Z" fill="#353640"/>
<path d="M24 4C24 6.20914 22.2091 8 20 8C17.7909 8 16 6.20914 16 4C16 1.79086 17.7909 0 20 0C22.2091 0 24 1.79086 24 4Z" fill="#353640"/>
<path d="M40 4C40 6.20914 38.2091 8 36 8C33.7909 8 32 6.20914 32 4C32 1.79086 33.7909 0 36 0C38.2091 0 40 1.79086 40 4Z" fill="#353640"/>
<path d="M56 4C56 6.20914 54.2091 8 52 8C49.7909 8 48 6.20914 48 4C48 1.79086 49.7909 0 52 0C54.2091 0 56 1.79086 56 4Z" fill="#353640"/>
<path d="M72 4C72 6.20914 70.2091 8 68 8C65.7909 8 64 6.20914 64 4C64 1.79086 65.7909 0 68 0C70.2091 0 72 1.79086 72 4Z" fill="#353640"/>
<path d="M88 4C88 6.20914 86.2091 8 84 8C81.7909 8 80 6.20914 80 4C80 1.79086 81.7909 0 84 0C86.2091 0 88 1.79086 88 4Z" fill="#353640"/>
<path d="M104 4C104 6.20914 102.209 8 100 8C97.7909 8 96 6.20914 96 4C96 1.79086 97.7909 0 100 0C102.209 0 104 1.79086 104 4Z" fill="#353640"/>
<path d="M120 4C120 6.20914 118.209 8 116 8C113.791 8 112 6.20914 112 4C112 1.79086 113.791 0 116 0C118.209 0 120 1.79086 120 4Z" fill="#353640"/>
<path d="M8 20C8 22.2091 6.20914 24 4 24C1.79086 24 0 22.2091 0 20C0 17.7909 1.79086 16 4 16C6.20914 16 8 17.7909 8 20Z" fill="#353640"/>
<path d="M24 20C24 22.2091 22.2091 24 20 24C17.7909 24 16 22.2091 16 20C16 17.7909 17.7909 16 20 16C22.2091 16 24 17.7909 24 20Z" fill="#353640"/>
<path d="M40 20C40 22.2091 38.2091 24 36 24C33.7909 24 32 22.2091 32 20C32 17.7909 33.7909 16 36 16C38.2091 16 40 17.7909 40 20Z" fill="#353640"/>
<path d="M56 20C56 22.2091 54.2091 24 52 24C49.7909 24 48 22.2091 48 20C48 17.7909 49.7909 16 52 16C54.2091 16 56 17.7909 56 20Z" fill="#353640"/>
<path d="M72 20C72 22.2091 70.2091 24 68 24C65.7909 24 64 22.2091 64 20C64 17.7909 65.7909 16 68 16C70.2091 16 72 17.7909 72 20Z" fill="#353640"/>
<path d="M88 20C88 22.2091 86.2091 24 84 24C81.7909 24 80 22.2091 80 20C80 17.7909 81.7909 16 84 16C86.2091 16 88 17.7909 88 20Z" fill="#353640"/>
<path d="M104 20C104 22.2091 102.209 24 100 24C97.7909 24 96 22.2091 96 20C96 17.7909 97.7909 16 100 16C102.209 16 104 17.7909 104 20Z" fill="#353640"/>
<path d="M120 20C120 22.2091 118.209 24 116 24C113.791 24 112 22.2091 112 20C112 17.7909 113.791 16 116 16C118.209 16 120 17.7909 120 20Z" fill="#353640"/>
<path d="M8 36C8 38.2091 6.20914 40 4 40C1.79086 40 0 38.2091 0 36C0 33.7909 1.79086 32 4 32C6.20914 32 8 33.7909 8 36Z" fill="#353640"/>
<path d="M24 36C24 38.2091 22.2091 40 20 40C17.7909 40 16 38.2091 16 36C16 33.7909 17.7909 32 20 32C22.2091 32 24 33.7909 24 36Z" fill="#353640"/>
<path d="M40 36C40 38.2091 38.2091 40 36 40C33.7909 40 32 38.2091 32 36C32 33.7909 33.7909 32 36 32C38.2091 32 40 33.7909 40 36Z" fill="#353640"/>
<path d="M56 36C56 38.2091 54.2091 40 52 40C49.7909 40 48 38.2091 48 36C48 33.7909 49.7909 32 52 32C54.2091 32 56 33.7909 56 36Z" fill="#353640"/>
<path d="M72 36C72 38.2091 70.2091 40 68 40C65.7909 40 64 38.2091 64 36C64 33.7909 65.7909 32 68 32C70.2091 32 72 33.7909 72 36Z" fill="#353640"/>
<path d="M88 36C88 38.2091 86.2091 40 84 40C81.7909 40 80 38.2091 80 36C80 33.7909 81.7909 32 84 32C86.2091 32 88 33.7909 88 36Z" fill="#353640"/>
<path d="M104 36C104 38.2091 102.209 40 100 40C97.7909 40 96 38.2091 96 36C96 33.7909 97.7909 32 100 32C102.209 32 104 33.7909 104 36Z" fill="#353640"/>
<path d="M120 36C120 38.2091 118.209 40 116 40C113.791 40 112 38.2091 112 36C112 33.7909 113.791 32 116 32C118.209 32 120 33.7909 120 36Z" fill="#353640"/>
<path d="M8 52C8 54.2091 6.20914 56 4 56C1.79086 56 0 54.2091 0 52C0 49.7909 1.79086 48 4 48C6.20914 48 8 49.7909 8 52Z" fill="#353640"/>
<path d="M24 52C24 54.2091 22.2091 56 20 56C17.7909 56 16 54.2091 16 52C16 49.7909 17.7909 48 20 48C22.2091 48 24 49.7909 24 52Z" fill="#353640"/>
<path d="M40 52C40 54.2091 38.2091 56 36 56C33.7909 56 32 54.2091 32 52C32 49.7909 33.7909 48 36 48C38.2091 48 40 49.7909 40 52Z" fill="#353640"/>
<path d="M56 52C56 54.2091 54.2091 56 52 56C49.7909 56 48 54.2091 48 52C48 49.7909 49.7909 48 52 48C54.2091 48 56 49.7909 56 52Z" fill="#353640"/>
<path d="M72 52C72 54.2091 70.2091 56 68 56C65.7909 56 64 54.2091 64 52C64 49.7909 65.7909 48 68 48C70.2091 48 72 49.7909 72 52Z" fill="#353640"/>
<path d="M88 52C88 54.2091 86.2091 56 84 56C81.7909 56 80 54.2091 80 52C80 49.7909 81.7909 48 84 48C86.2091 48 88 49.7909 88 52Z" fill="#353640"/>
<path d="M104 52C104 54.2091 102.209 56 100 56C97.7909 56 96 54.2091 96 52C96 49.7909 97.7909 48 100 48C102.209 48 104 49.7909 104 52Z" fill="#353640"/>
<path d="M120 52C120 54.2091 118.209 56 116 56C113.791 56 112 54.2091 112 52C112 49.7909 113.791 48 116 48C118.209 48 120 49.7909 120 52Z" fill="#353640"/>
<path d="M8 68C8 70.2091 6.20914 72 4 72C1.79086 72 0 70.2091 0 68C0 65.7909 1.79086 64 4 64C6.20914 64 8 65.7909 8 68Z" fill="#353640"/>
<path d="M24 68C24 70.2091 22.2091 72 20 72C17.7909 72 16 70.2091 16 68C16 65.7909 17.7909 64 20 64C22.2091 64 24 65.7909 24 68Z" fill="#353640"/>
<path d="M40 68C40 70.2091 38.2091 72 36 72C33.7909 72 32 70.2091 32 68C32 65.7909 33.7909 64 36 64C38.2091 64 40 65.7909 40 68Z" fill="#353640"/>
<path d="M56 68C56 70.2091 54.2091 72 52 72C49.7909 72 48 70.2091 48 68C48 65.7909 49.7909 64 52 64C54.2091 64 56 65.7909 56 68Z" fill="#353640"/>
<path d="M72 68C72 70.2091 70.2091 72 68 72C65.7909 72 64 70.2091 64 68C64 65.7909 65.7909 64 68 64C70.2091 64 72 65.7909 72 68Z" fill="#353640"/>
<path d="M88 68C88 70.2091 86.2091 72 84 72C81.7909 72 80 70.2091 80 68C80 65.7909 81.7909 64 84 64C86.2091 64 88 65.7909 88 68Z" fill="#353640"/>
<path d="M104 68C104 70.2091 102.209 72 100 72C97.7909 72 96 70.2091 96 68C96 65.7909 97.7909 64 100 64C102.209 64 104 65.7909 104 68Z" fill="#353640"/>
<path d="M120 68C120 70.2091 118.209 72 116 72C113.791 72 112 70.2091 112 68C112 65.7909 113.791 64 116 64C118.209 64 120 65.7909 120 68Z" fill="#353640"/>
<path d="M8 84C8 86.2091 6.20914 88 4 88C1.79086 88 0 86.2091 0 84C0 81.7909 1.79086 80 4 80C6.20914 80 8 81.7909 8 84Z" fill="#353640"/>
<path d="M24 84C24 86.2091 22.2091 88 20 88C17.7909 88 16 86.2091 16 84C16 81.7909 17.7909 80 20 80C22.2091 80 24 81.7909 24 84Z" fill="#353640"/>
<path d="M40 84C40 86.2091 38.2091 88 36 88C33.7909 88 32 86.2091 32 84C32 81.7909 33.7909 80 36 80C38.2091 80 40 81.7909 40 84Z" fill="#353640"/>
<path d="M56 84C56 86.2091 54.2091 88 52 88C49.7909 88 48 86.2091 48 84C48 81.7909 49.7909 80 52 80C54.2091 80 56 81.7909 56 84Z" fill="#353640"/>
<path d="M72 84C72 86.2091 70.2091 88 68 88C65.7909 88 64 86.2091 64 84C64 81.7909 65.7909 80 68 80C70.2091 80 72 81.7909 72 84Z" fill="#353640"/>
<path d="M88 84C88 86.2091 86.2091 88 84 88C81.7909 88 80 86.2091 80 84C80 81.7909 81.7909 80 84 80C86.2091 80 88 81.7909 88 84Z" fill="#353640"/>
<path d="M104 84C104 86.2091 102.209 88 100 88C97.7909 88 96 86.2091 96 84C96 81.7909 97.7909 80 100 80C102.209 80 104 81.7909 104 84Z" fill="#353640"/>
<path d="M120 84C120 86.2091 118.209 88 116 88C113.791 88 112 86.2091 112 84C112 81.7909 113.791 80 116 80C118.209 80 120 81.7909 120 84Z" fill="#353640"/>
<path d="M8 100C8 102.209 6.20914 104 4 104C1.79086 104 0 102.209 0 100C0 97.7909 1.79086 96 4 96C6.20914 96 8 97.7909 8 100Z" fill="#353640"/>
<path d="M24 100C24 102.209 22.2091 104 20 104C17.7909 104 16 102.209 16 100C16 97.7909 17.7909 96 20 96C22.2091 96 24 97.7909 24 100Z" fill="#353640"/>
<path d="M40 100C40 102.209 38.2091 104 36 104C33.7909 104 32 102.209 32 100C32 97.7909 33.7909 96 36 96C38.2091 96 40 97.7909 40 100Z" fill="#353640"/>
<path d="M56 100C56 102.209 54.2091 104 52 104C49.7909 104 48 102.209 48 100C48 97.7909 49.7909 96 52 96C54.2091 96 56 97.7909 56 100Z" fill="#353640"/>
<path d="M72 100C72 102.209 70.2091 104 68 104C65.7909 104 64 102.209 64 100C64 97.7909 65.7909 96 68 96C70.2091 96 72 97.7909 72 100Z" fill="#353640"/>
<path d="M88 100C88 102.209 86.2091 104 84 104C81.7909 104 80 102.209 80 100C80 97.7909 81.7909 96 84 96C86.2091 96 88 97.7909 88 100Z" fill="#353640"/>
<path d="M104 100C104 102.209 102.209 104 100 104C97.7909 104 96 102.209 96 100C96 97.7909 97.7909 96 100 96C102.209 96 104 97.7909 104 100Z" fill="#353640"/>
<path d="M120 100C120 102.209 118.209 104 116 104C113.791 104 112 102.209 112 100C112 97.7909 113.791 96 116 96C118.209 96 120 97.7909 120 100Z" fill="#353640"/>
<path d="M8 116C8 118.209 6.20914 120 4 120C1.79086 120 0 118.209 0 116C0 113.791 1.79086 112 4 112C6.20914 112 8 113.791 8 116Z" fill="#353640"/>
<path d="M24 116C24 118.209 22.2091 120 20 120C17.7909 120 16 118.209 16 116C16 113.791 17.7909 112 20 112C22.2091 112 24 113.791 24 116Z" fill="#353640"/>
<path d="M40 116C40 118.209 38.2091 120 36 120C33.7909 120 32 118.209 32 116C32 113.791 33.7909 112 36 112C38.2091 112 40 113.791 40 116Z" fill="#353640"/>
<path d="M56 116C56 118.209 54.2091 120 52 120C49.7909 120 48 118.209 48 116C48 113.791 49.7909 112 52 112C54.2091 112 56 113.791 56 116Z" fill="#353640"/>
<path d="M72 116C72 118.209 70.2091 120 68 120C65.7909 120 64 118.209 64 116C64 113.791 65.7909 112 68 112C70.2091 112 72 113.791 72 116Z" fill="#353640"/>
<path d="M88 116C88 118.209 86.2091 120 84 120C81.7909 120 80 118.209 80 116C80 113.791 81.7909 112 84 112C86.2091 112 88 113.791 88 116Z" fill="#353640"/>
<path d="M104 116C104 118.209 102.209 120 100 120C97.7909 120 96 118.209 96 116C96 113.791 97.7909 112 100 112C102.209 112 104 113.791 104 116Z" fill="#353640"/>
<path d="M120 116C120 118.209 118.209 120 116 120C113.791 120 112 118.209 112 116C112 113.791 113.791 112 116 112C118.209 112 120 113.791 120 116Z" fill="#353640"/>
</svg>
