<svg width="384" height="426" viewBox="0 0 384 426" fill="none" xmlns="http://www.w3.org/2000/svg">
<path d="M371.798 182.674C370.853 181.373 369.197 180.664 367.66 181.61C365.65 182.674 363.995 184.093 362.694 185.63C360.92 182.201 357.728 179.718 353.235 179.954C350.279 180.072 347.796 181.61 346.022 183.738C341.529 179.126 335.144 176.525 328.404 177.353C328.286 177.353 328.168 177.471 327.931 177.471C324.62 171.796 320.718 166.475 316.225 161.509C314.097 159.144 310.431 161.627 311.141 164.465C318.235 192.369 328.641 221.575 327.813 250.662C327.222 273.246 316.816 299.851 293.996 308.482C289.03 310.374 289.503 308.009 288.557 303.398C287.966 300.324 287.256 297.249 286.783 294.175C285.364 286.489 284.064 278.804 282.881 271.118C280.753 256.693 279.216 242.149 278.033 227.724C276.851 213.535 275.905 199.346 275.196 185.039C275.55 185.039 275.905 185.039 276.26 185.039C284.537 183.265 297.07 177.471 292.695 166.711C289.266 158.316 280.516 157.843 274.131 161.863C273.777 154.532 273.54 147.083 273.185 139.752C272.594 125.327 271.885 110.783 270.939 96.3577C270.229 86.1889 269.283 75.902 265.382 66.4427C261.716 57.5746 255.331 50.2436 246.226 46.6964C235.467 42.4397 222.933 43.1492 211.582 43.2674C188.998 43.5039 164.877 46.1052 145.367 58.5205C125.975 70.8176 114.388 91.7463 109.185 113.739C104.337 134.195 104.101 155.596 104.692 176.88C101.736 172.623 97.9521 168.721 92.6312 168.13C87.3104 167.421 81.5165 170.14 80.3341 175.816C77.7328 189.059 94.996 194.261 105.165 196.035C105.283 200.173 105.401 204.194 105.519 208.332C106.111 240.139 106.584 272.064 107.175 303.871C87.1921 290.983 66.2634 275.966 59.8784 251.845C56.5676 239.311 58.223 227.251 65.3175 216.372C71.1113 207.504 77.9693 199.582 78.797 188.586C78.9152 186.221 76.0774 184.802 74.1856 185.984C67.3276 190.005 61.2973 194.853 55.9765 200.528C55.9765 200.173 55.9765 199.7 55.9765 199.346C55.8582 197.099 53.4934 195.444 51.3651 196.744C48.882 198.282 46.6354 199.937 44.6253 201.829C44.6253 200.055 44.6253 198.282 44.3888 196.39C44.1524 194.025 41.0781 192.015 39.1862 194.261C37.8855 195.798 36.5849 197.454 35.4025 199.109C35.4025 198.4 35.4025 197.69 35.4025 196.863C35.2843 195.089 33.5106 193.197 31.5005 193.907C16.7204 199.7 9.38944 214.244 5.36924 228.788C0.639595 245.578 0.166641 263.432 3.47739 280.577C10.2171 315.104 33.1559 344.428 64.9628 359.208C81.753 367.012 100.08 370.677 118.526 369.731L119.827 393.498C119.945 396.217 123.019 397.045 124.793 395.981C159.792 400.356 194.91 404.494 230.264 403.666C247.291 403.312 264.317 401.775 280.989 398.464C285.955 397.518 291.631 396.217 292.813 390.423C293.523 386.994 292.577 383.092 292.222 379.663C291.749 375.407 291.395 371.15 290.922 366.893C293.878 362.637 298.844 361.336 303.573 359.444C311.496 356.252 318.472 351.404 324.502 345.492C338.1 332.249 347.204 314.631 355.836 297.959C365.532 279.395 374.163 259.767 378.302 239.075C381.731 220.511 383.386 198.4 371.798 182.674Z" fill="#F4BFAB"/>
<path d="M381.138 235.409C363.52 236.119 345.902 236.355 328.284 235.882C326.629 235.882 325.328 237.301 325.21 238.957C324.264 262.368 320.953 296.303 293.639 302.807C292.102 297.604 290.684 292.52 289.146 287.317C289.738 286.253 289.738 284.952 288.555 283.888C285.008 280.577 280.869 280.814 276.376 281.523C268.572 282.942 260.887 284.479 253.201 285.78C236.766 288.5 220.212 290.51 203.658 291.929C171.851 294.648 139.926 295.003 108.119 292.993C107.883 292.993 107.528 292.993 107.291 292.993C82.1061 285.307 63.1875 262.132 61.2957 235.764C61.1774 234.582 60.468 233.044 59.0491 232.808C39.894 230.207 21.9214 236.119 4.06695 242.622C2.88454 243.095 2.17508 244.041 2.05684 245.105C1.70212 245.46 1.46564 245.933 1.3474 246.524C-3.50048 276.675 4.89463 307.773 23.9314 331.539C28.7793 337.688 34.3367 343.127 40.4852 347.975C41.9041 349.039 43.323 350.103 44.7419 351.167C47.3432 353.177 47.3432 354.596 46.752 357.907C46.279 360.508 45.6878 362.282 46.752 365.002C50.8905 375.643 64.3699 371.86 65.6706 362.873C80.9237 367.248 96.4133 370.559 112.021 373.042C111.903 373.397 111.903 373.87 112.021 374.343C113.322 381.91 113.795 389.596 113.44 397.281C113.44 398.464 114.386 400.001 115.687 400.237C154.233 405.795 193.016 411.234 232.036 410.524C250.718 410.17 269.4 408.396 287.727 404.494C293.994 403.193 300.143 401.302 301.325 394.089C302.153 388.886 301.325 382.856 300.025 377.062C309.602 372.805 318.234 367.012 325.683 359.681C329.348 366.066 338.808 367.958 343.655 360.39C344.956 358.262 345.547 355.779 345.193 353.296C344.601 349.157 341.291 346.911 343.537 342.654C345.074 339.934 347.794 337.451 349.804 334.968C352.287 331.776 354.652 328.465 356.78 325.036C373.571 299.259 382.912 269.108 383.976 238.484C384.212 236.828 382.675 235.291 381.138 235.409Z" fill="#068466"/>
<path d="M294.352 65.3785C302.629 59.2299 305.703 46.6964 301.328 37.2371C295.652 24.8218 281.464 21.1563 269.048 23.5211C272.004 13.4706 264.91 1.64651 253.559 0.227612C239.37 -1.66425 229.91 8.50449 226.718 20.8016C224.826 17.7273 222.698 14.8895 220.096 12.2882C215.721 8.03153 207.918 1.29178 201.414 2.4742C195.029 3.53837 192.901 12.5247 192.073 17.7273C191.6 20.9198 191.482 24.1123 191.837 27.1866C184.033 20.4468 174.574 16.3084 163.932 14.8895C162.631 14.7713 161.331 15.9537 160.976 17.1361C159.202 23.8758 159.557 30.6156 161.685 36.7641C151.044 31.0886 138.746 27.896 126.922 29.1967C121.602 29.7879 116.044 32.7439 116.399 38.7742C116.635 42.7944 118.646 46.8146 121.247 50.7166C110.487 47.4058 98.8992 47.997 88.2575 52.6084C87.0751 53.0814 86.4839 54.855 86.8386 56.0374C88.1393 60.0576 89.9129 63.8413 92.1595 67.1521C89.3217 66.6791 86.3657 66.6791 83.4097 67.2703C76.9064 68.6892 70.8761 73.5371 69.6937 80.3951C67.0924 95.057 83.2914 102.506 96.4162 104.753C95.7067 106.999 95.2338 109.246 95.1155 111.729C94.6426 117.878 95.825 126.509 103.038 128.046C110.25 129.583 118.054 123.198 123.257 118.942C126.686 116.104 129.76 112.793 132.48 109.364C132.716 118.587 135.909 128.165 145.132 128.283C150.925 128.401 154.118 123.198 156.246 118.469C158.729 113.148 160.621 107.591 162.276 101.915C165.824 111.138 169.134 121.543 181.077 120.124C193.137 118.823 197.394 108.182 198.931 97.5401C202.005 102.151 205.435 106.408 209.336 110.31C213.948 114.922 220.215 121.425 227.191 122.016C233.694 122.489 239.251 118.114 242.089 112.557C243.626 109.364 244.218 106.053 244.099 102.624C250.011 109.364 257.461 115.04 265.501 116.104C270.467 116.813 274.487 113.976 276.379 109.482C276.97 108.182 277.207 106.763 277.325 105.462C285.72 109.601 296.598 108.182 303.102 99.5502C312.088 87.3713 306.412 71.6453 294.352 65.3785Z" fill="#353640"/>
<path d="M341.643 49.1795C339.751 54.2638 337.741 59.4665 335.849 64.5508C334.43 68.2163 340.342 69.7534 341.761 66.2062C343.653 61.1218 345.663 55.9192 347.555 50.8348C348.856 47.0511 342.943 45.514 341.643 49.1795Z" fill="#ED7354"/>
<path d="M361.151 59.8211C360.087 58.757 357.84 58.5205 356.894 59.8211C354.175 63.3684 351.455 66.7974 348.736 70.3446C347.672 71.6453 347.435 73.4189 348.736 74.6013C349.8 75.6655 352.046 75.9019 352.992 74.6013C355.712 71.0541 358.431 67.6251 361.151 64.0778C362.097 62.8954 362.333 61.1218 361.151 59.8211Z" fill="#ED7354"/>
<path d="M50.654 112.32C48.171 106.645 44.5055 101.56 39.8941 97.5401C36.9381 94.9388 32.6814 99.1955 35.6374 101.797C39.8941 105.581 43.2049 110.074 45.4514 115.395C46.9886 119.06 52.3094 115.868 50.654 112.32Z" fill="#ED7354"/>
<path d="M46.8651 118.469C40.8348 116.577 34.9228 114.803 28.8925 112.911C25.1087 111.729 23.5716 117.641 27.2371 118.823C33.2674 120.715 39.1794 122.489 45.2097 124.381C48.9934 125.563 50.6488 119.651 46.8651 118.469Z" fill="#ED7354"/>
<path d="M280.75 277.976C225.65 289.327 169.13 292.165 113.084 286.489C112.493 286.016 111.547 285.78 110.601 286.135C107.29 287.317 104.334 290.391 105.753 294.175C106.344 295.712 107.645 296.658 108.946 297.604C110.601 298.786 112.138 299.851 113.794 301.033C147.019 327.756 182.019 352.113 218.674 373.988C220.092 374.816 221.984 374.224 222.812 372.924C240.548 345.137 259.348 317.942 279.095 291.574C280.041 291.337 280.987 290.746 281.341 289.564C281.578 288.854 281.932 288.145 282.169 287.317C282.642 286.726 282.997 286.135 283.47 285.543C284.179 284.598 284.179 283.77 283.824 282.942C283.943 282.469 284.179 282.114 284.297 281.641C285.362 279.395 282.76 277.621 280.75 277.976Z" fill="white"/>
<path d="M160.272 345.728C158.144 332.485 146.202 322.908 132.959 322.908C119.834 322.908 108.364 332.722 105.881 345.61C103.871 355.779 108.837 367.248 118.533 369.495C115.814 387.467 115.814 405.558 118.533 423.649C118.888 426.369 122.908 426.487 124.09 424.359C128.111 417.146 132.131 410.051 136.151 402.839C138.989 409.224 142.418 415.372 146.438 421.166C148.212 423.767 151.877 422.703 152.114 419.629C153.769 402.957 152.587 386.167 151.168 369.495C151.168 369.14 151.049 368.785 150.931 368.549C157.907 363.464 161.691 354.715 160.272 345.728Z" fill="#353640"/>
<path d="M103.985 182.437L95.3537 175.343C94.053 174.279 92.2794 174.042 91.097 175.343C90.0329 176.407 89.7964 178.653 91.097 179.599L99.7286 186.694C101.029 187.758 102.803 187.995 103.985 186.694C105.049 185.748 105.286 183.501 103.985 182.437Z" fill="#4A3B2A"/>
<path d="M287.142 168.485C286.314 167.184 284.304 166.475 283.004 167.421C280.757 168.958 278.51 170.14 275.909 171.086C274.372 171.677 273.308 173.214 273.781 174.87C274.254 176.407 275.909 177.589 277.565 176.998C280.639 175.934 283.477 174.515 286.078 172.741C287.379 171.677 287.97 169.904 287.142 168.485Z" fill="#4A3B2A"/>
<path d="M242.448 155.715C241.502 149.33 240.32 142.945 238.901 136.56C238.073 132.894 238.073 127.81 234.644 125.563C233.462 124.854 231.924 125.208 230.978 126.036C230.033 126.864 229.678 127.81 229.796 128.992C229.914 130.293 230.506 131.239 231.57 131.712C231.688 131.948 231.806 132.303 231.924 132.539C232.279 134.077 232.634 135.495 232.989 137.033C233.698 139.989 234.289 142.945 234.88 146.019C235.945 151.694 236.891 157.488 237.6 163.282C238.901 173.687 240.083 184.329 239.61 194.734C238.664 214.481 227.313 238.011 204.138 236.119C183.091 234.345 170.203 215.545 165.709 196.626C160.507 174.752 162.399 150.63 166.655 128.756C167.365 124.972 161.571 123.317 160.743 127.1C154.24 160.563 150.102 211.525 182.145 233.99C195.151 243.095 212.888 245.578 226.367 236.119C241.029 225.832 245.877 207.268 245.877 190.241C245.64 178.89 244.221 167.184 242.448 155.715Z" fill="#4A3B2A"/>
<path d="M211.462 189.65C211.344 187.995 210.161 186.576 208.388 186.576C206.851 186.576 205.195 187.995 205.313 189.65C205.55 192.015 205.432 194.38 204.84 196.744C203.894 200.528 209.807 202.184 210.752 198.4C211.462 195.444 211.698 192.606 211.462 189.65Z" fill="#4A3B2A"/>
<path d="M221.155 192.015C221.155 194.734 220.682 197.217 219.617 199.819C219.026 201.356 220.327 203.129 221.746 203.602C223.519 204.075 224.938 203.011 225.529 201.474C226.712 198.518 227.303 195.325 227.303 192.015C227.303 188.113 221.155 188.113 221.155 192.015Z" fill="#4A3B2A"/>
<path d="M209.565 209.515C208.974 211.761 208.383 214.008 207.791 216.254C206.846 220.038 212.639 221.693 213.703 217.91L215.477 211.17C216.423 207.268 210.629 205.731 209.565 209.515Z" fill="#4A3B2A"/>
<path d="M134.722 155.478C134.486 158.198 133.894 164.701 129.874 164.583C125.736 164.465 125.972 158.198 126.327 155.478C126.8 151.576 120.651 151.576 120.178 155.478C119.469 161.981 121.952 170.613 129.874 170.731C138.033 170.85 140.279 161.863 140.871 155.478C141.107 151.576 135.077 151.695 134.722 155.478Z" fill="#4A3B2A"/>
<path d="M262.543 146.374C262.189 142.472 256.158 142.472 256.395 146.374C256.513 148.384 257.104 152.995 254.03 152.759C250.601 152.522 249.773 147.556 249.418 144.955C248.827 141.053 243.033 142.708 243.506 146.61C244.334 152.522 247.645 159.144 254.621 158.907C261.361 158.553 263.134 151.813 262.543 146.374Z" fill="#4A3B2A"/>
<path d="M261.832 233.281C244.924 249.48 224.941 258.466 201.293 258.23C177.881 257.993 155.533 249.953 133.659 242.267C129.993 240.967 128.338 246.879 132.003 248.179C155.652 256.574 180.128 265.206 205.668 264.378C229.198 263.551 249.299 253.737 266.207 237.656C269.045 234.818 264.67 230.561 261.832 233.281Z" fill="#4A3B2A"/>
<path d="M256.161 314.749C240.435 308.482 225.773 299.969 212.53 289.446C211.584 288.618 210.047 288.145 208.864 288.973C190.774 302.216 172.446 315.104 154.001 327.637C150.808 329.884 153.764 335.087 157.075 332.958C175.047 320.779 192.784 308.246 210.402 295.358C223.999 305.763 238.779 314.158 254.624 320.543C258.171 322.08 259.708 316.286 256.161 314.749Z" fill="#4A3B2A"/>
<path d="M217.963 310.847C217.608 308.246 215.007 306.354 212.406 306.709C211.696 306.827 210.987 307.063 210.396 307.536C210.278 307.655 210.159 307.773 210.041 307.891C210.632 307.418 210.514 307.536 209.805 308.128C209.45 308.364 209.213 308.719 209.095 308.955C208.149 310.374 208.149 312.148 208.977 313.567C209.45 314.394 210.277 314.867 211.223 314.986C211.578 315.222 212.051 315.459 212.524 315.577C215.362 316.286 218.318 314.04 217.963 310.847Z" fill="#4A3B2A"/>
<path d="M219.142 335.087C218.787 333.431 216.895 332.604 215.358 332.958C214.885 333.076 214.412 333.195 214.057 333.549C213.821 333.668 213.703 333.668 213.466 333.786C211.929 334.85 211.101 336.624 211.574 338.516C211.929 340.053 213.111 341.472 214.767 341.826C216.186 342.063 217.368 341.59 218.196 340.407C219.378 338.87 219.615 336.86 219.142 335.087Z" fill="#4A3B2A"/>
<path d="M219.977 354.478C218.676 353.296 217.021 353.296 215.72 354.478C212.646 357.079 212.764 362.046 215.602 364.765C217.848 366.893 220.923 364.765 220.804 362.4C222.341 360.035 222.342 356.488 219.977 354.478Z" fill="#4A3B2A"/>
<path d="M281.812 367.366C269.634 367.012 256.272 365.12 244.212 367.485C243.857 367.485 243.62 367.603 243.384 367.721C242.202 367.603 241.019 368.312 240.664 369.968C238.3 384.629 246.458 403.075 263.249 403.785C282.285 404.494 283.35 384.511 284.65 370.559C285.123 368.785 283.35 367.485 281.812 367.366ZM265.14 397.636C252.37 398.464 245.631 384.275 246.458 373.278C252.134 372.332 258.164 372.924 263.84 373.042C268.688 373.16 273.654 373.278 278.502 373.397C277.91 383.211 277.319 396.927 265.14 397.636Z" fill="white"/>
<path d="M380.303 248.77C362.567 247.706 344.949 248.298 327.331 250.426C323.429 250.899 323.429 257.047 327.331 256.574C344.949 254.446 362.567 253.855 380.303 254.919C384.205 255.156 384.205 249.007 380.303 248.77Z" fill="white"/>
<path d="M57.0403 246.051C47.3446 250.544 38.4765 253.737 27.953 255.865C18.9667 257.757 10.2169 259.767 2.17647 264.378C-1.25253 266.388 1.82175 271.591 5.25074 269.699C14.0006 264.615 23.8146 263.078 33.5104 260.949C43.2061 258.939 51.2465 255.51 60.1146 251.372C63.6619 249.716 60.4693 244.396 57.0403 246.051Z" fill="white"/>
<path d="M136.625 333.195C129.885 331.894 123.145 336.387 120.426 342.418C119.716 343.482 119.125 344.664 118.77 345.728C117.47 349.63 118.534 353.296 120.899 356.015C122.318 358.498 124.446 360.745 126.693 362.164C134.615 367.13 142.064 362.755 145.02 355.897C150.104 347.857 146.912 335.205 136.625 333.195Z" fill="white"/>
<path d="M138.737 345.492H136.254C136.372 344.901 136.372 344.191 136.608 343.6C137.318 339.816 131.524 338.161 130.696 341.945C130.46 343.127 130.342 344.309 130.223 345.374H127.859C123.957 345.374 123.957 351.522 127.859 351.522H129.987C129.987 351.877 129.987 352.113 129.987 352.468C130.223 356.37 136.372 356.37 136.135 352.468C136.135 352.113 136.135 351.877 136.135 351.522H138.855C142.757 351.64 142.757 345.492 138.737 345.492Z" fill="#ED7354"/>
<path d="M265.375 67.1521C262.655 64.4326 259.344 62.8955 255.561 62.4225C254.023 62.186 252.604 63.9596 252.604 65.3785C252.604 67.1521 254.023 68.0981 255.561 68.3346C257.807 68.571 259.699 69.7534 261.236 71.2906C263.956 74.0101 268.094 69.8717 265.375 67.1521Z" fill="white"/>
<path d="M264.076 43.3857C261.947 42.9127 259.819 42.4397 257.691 42.085C256.154 41.7303 254.498 42.558 254.025 44.0951C253.671 45.514 254.498 47.4059 256.035 47.7606C258.164 48.2336 260.292 48.7065 262.42 49.0612C263.958 49.416 265.613 48.5883 266.086 47.0511C266.559 45.514 265.613 43.7404 264.076 43.3857Z" fill="white"/>
<path d="M238.419 47.6424C235.699 44.9229 232.27 43.504 228.486 43.1492C226.949 43.031 225.53 44.5681 225.53 46.1053C225.53 47.7606 226.831 48.9431 228.486 49.0613C230.733 49.2978 232.743 50.2437 234.28 51.7808C237 54.5004 241.138 50.3619 238.419 47.6424Z" fill="white"/>
</svg>
