<svg width="486" height="381" viewBox="0 0 486 381" fill="none" xmlns="http://www.w3.org/2000/svg">
<path d="M378.737 280.895C376.377 261.906 374.916 242.804 374.242 223.701C374.242 222.578 373.455 221.229 372.219 221.005C363.567 219.544 355.14 219.319 346.488 220.331C345.139 220.443 344.353 221.454 344.016 222.465C342.892 222.69 341.993 223.589 342.218 225.05C343.903 238.758 345.252 252.355 346.038 266.176C346.825 278.648 345.926 291.683 349.522 303.818C349.971 305.391 351.432 306.065 353.005 305.728C360.421 304.267 369.86 302.807 376.489 298.874C382.669 295.053 379.523 286.851 378.737 280.895Z" fill="#353640"/>
<path d="M483.687 181.115C482.002 173.249 479.305 165.609 475.822 158.305C472.788 152.012 469.304 145.608 462.562 142.686C454.472 139.09 444.584 138.079 435.932 136.506C426.044 134.596 416.043 133.023 406.043 131.674C387.165 129.09 368.288 127.517 349.298 126.843C326.938 126.056 304.577 126.618 282.328 128.303C279.182 128.528 278.845 132.798 281.092 133.697C285.475 140.326 280.194 150.215 277.834 156.732C275.025 164.485 271.879 172.013 268.508 179.43C262.103 193.363 254.687 206.734 246.372 219.544C242.776 219.544 242.776 225.162 246.372 225.162C323.567 224.938 400.762 227.41 477.732 232.466C478.518 232.466 479.193 232.241 479.642 231.904C480.766 232.017 482.002 231.342 482.339 229.882C486.721 214.038 487.17 197.296 483.687 181.115Z" fill="#ED7354"/>
<path d="M451.774 163.249C451.774 162.125 450.875 160.665 449.751 160.552C436.829 158.755 424.019 159.653 411.434 163.474C409.974 163.474 408.625 164.373 408.625 166.171C408.625 170.665 408.513 175.16 408.513 179.654C408.513 182.351 407.726 186.284 409.412 188.644C412.67 193.475 422.222 189.43 426.379 188.644L440.537 185.835C443.459 185.273 447.504 185.273 449.976 183.25C451.661 181.902 451.886 180.104 451.998 178.081C452.335 173.25 451.774 168.081 451.774 163.249Z" fill="white"/>
<path d="M449.078 154.372C423.009 157.069 397.053 160.44 371.097 164.373C367.501 164.935 369.074 170.328 372.557 169.766C397.952 165.834 423.459 162.575 448.966 159.878C452.674 159.653 452.674 153.923 449.078 154.372Z" fill="#353640"/>
<path d="M304.576 186.509C303.79 176.733 302.666 167.069 301.318 157.406C300.306 150.102 299.408 142.462 295.812 135.944C288.508 122.798 274.013 126.169 265.698 136.281C253.787 150.889 248.281 171.339 246.708 189.767C246.708 189.88 246.596 189.992 246.596 190.104C242.888 201.341 242.101 212.802 243.787 224.376C244.011 226.174 246.484 226.96 247.944 226.061C255.697 221.342 260.642 217.522 268.957 224.938C271.204 226.96 279.069 225.612 282.216 226.174C286.71 226.848 292.216 225.949 296.711 225.724C303.79 225.387 306.037 223.14 305.925 216.061C305.925 206.285 305.363 196.397 304.576 186.509Z" fill="#353640"/>
<path d="M281.203 213.139C278.394 212.24 275.697 211.791 272.888 211.566C273.449 211.004 274.011 210.33 274.573 209.656C275.922 207.97 275.247 204.712 272.551 204.824C270.528 204.937 268.505 205.049 266.483 205.274C267.382 204.487 268.281 203.813 269.292 203.026C271.202 201.453 269.629 198.195 267.269 198.195C265.359 198.307 263.449 198.419 261.651 198.532C263.224 197.183 264.685 195.61 266.033 194.037C267.157 192.689 267.157 190.554 265.472 189.655C259.741 186.509 253.898 188.306 248.504 191.34C241.313 195.385 234.571 200.554 227.942 205.498C214.907 215.386 202.659 226.286 191.423 238.309C185.917 244.152 181.085 250.782 175.355 256.4C172.208 259.434 168.837 261.456 165.129 262.917C162.994 241.118 160.859 219.319 158.724 197.52C158.724 197.408 158.724 197.296 158.612 197.183C163.107 199.655 168.163 201.004 173.669 200.667C192.322 199.543 203.895 181.003 206.03 164.148C208.615 144.259 201.199 124.371 192.434 106.842C183.557 88.8631 172.545 71.5589 158.387 57.4008C146.364 45.3777 127.262 28.5229 108.834 34.4783C91.0806 40.3213 79.844 60.3223 70.9672 75.3793C49.5054 112.235 37.4823 153.586 28.9425 195.161C20.5151 236.286 14.335 277.862 9.16623 319.549C9.05387 319.774 8.9415 320.111 8.9415 320.448C8.49204 324.943 7.48076 329.55 7.59312 334.044C7.59312 336.404 8.49205 338.427 10.4023 339.775C13.8856 342.247 18.8297 342.696 23.6614 342.809C70.8548 355.618 120.745 348.539 168.388 340.786C175.13 340.112 181.759 338.764 188.052 336.179C189.175 338.988 190.074 341.91 192.996 343.595C196.03 345.393 199.85 345.056 202.772 343.371C210.075 339.325 209.401 330.449 205.019 324.493C223.222 305.728 226.256 276.513 240.302 255.051C250.976 238.758 270.416 232.803 282.326 217.859C283.787 216.173 283.338 213.813 281.203 213.139Z" fill="#F4BFAB"/>
<path d="M181.762 30.0961C177.493 28.0735 173.11 27.2869 168.84 27.5117C169.178 27.0622 169.402 26.5004 169.739 26.0509C171.312 22.9047 173.672 17.5112 170.526 14.4773C168.166 12.1176 165.02 12.23 161.986 13.466C163.672 8.2972 163.784 3.24075 159.289 0.768716C156.031 -1.02913 153.109 0.543999 151.087 3.24077C147.042 8.40957 143.334 13.1289 137.828 16.9493C126.816 24.5902 112.433 25.7138 99.6234 29.6466C100.298 24.1407 101.084 18.7472 101.758 13.2413C102.208 10.2074 97.938 9.75795 96.4772 11.7805C94.2299 15.0391 92.9939 18.6348 92.6568 22.3429C88.8364 19.309 84.4541 17.2864 79.2853 18.5224C77.4875 18.9719 76.7009 21.1068 77.5998 22.68C79.0606 25.2644 81.3079 26.9498 83.8923 28.4106C85.8025 29.5342 89.3982 30.8826 90.4095 33.1299C85.8025 35.4896 81.5326 38.6358 78.1617 43.1305C77.8246 43.2428 77.4875 43.4676 77.1504 43.917C64.0036 59.0863 54.5649 76.9524 49.3961 96.3916C48.9467 98.3018 50.7445 100.662 52.8795 99.8749C62.7676 96.0545 71.3074 90.3239 78.4988 82.7954C77.2627 89.2002 75.9143 95.7174 75.2401 102.122C74.6783 107.066 75.802 113.246 81.9821 113.471C89.3982 113.696 93.2186 103.92 95.6906 98.5266C98.0503 93.3577 100.073 88.1889 101.758 82.7954C103.781 90.661 106.927 98.0771 111.422 105.044C112.77 107.179 115.804 106.617 116.591 104.37C119.175 96.8411 120.523 89.2002 120.748 81.447C126.703 87.7395 134.007 92.2341 142.547 94.9309C144.682 95.6051 146.367 93.4701 146.03 91.4475C145.131 86.7282 143.671 82.2336 141.76 78.0761C143.334 78.8626 145.019 79.5368 146.704 80.0986C149.963 81.2223 154.907 83.4696 158.391 82.0089C163.784 79.6492 161.312 74.5927 157.716 69.9858C159.964 70.4352 162.211 70.7723 164.458 70.8847C168.728 71.1094 176.931 71.5589 179.515 67.289C181.987 63.0191 177.043 58.4121 174.234 55.7154C171.312 52.9062 168.054 50.5466 164.571 48.7487C171.425 45.153 177.38 40.4337 182.549 34.5907C183.336 33.3547 183.448 30.995 181.762 30.0961Z" fill="#353640"/>
<path d="M173.782 142.349C172.096 139.54 171.085 136.618 170.635 133.36C170.411 131.899 168.5 131 167.152 131.45C165.579 131.899 165.017 133.36 165.242 134.933C165.804 138.641 167.04 142.124 168.95 145.27C170.748 148.192 175.692 145.383 173.782 142.349Z" fill="#4A3B2A"/>
<path d="M179.289 131.562C178.39 127.742 177.491 124.033 176.592 120.213C175.693 116.73 170.3 118.19 171.199 121.674C172.098 125.494 172.997 129.202 173.896 133.023C174.682 136.618 180.076 135.045 179.289 131.562Z" fill="#4A3B2A"/>
<path d="M188.165 148.08C187.828 144.484 182.21 144.484 182.547 148.08C182.884 152.125 183.333 156.282 183.67 160.328C184.008 163.923 189.626 163.923 189.289 160.328C188.952 156.282 188.502 152.125 188.165 148.08Z" fill="#4A3B2A"/>
<path d="M187.04 133.135V142.798C187.04 146.394 192.658 146.394 192.658 142.798V133.135C192.658 129.539 187.04 129.539 187.04 133.135Z" fill="#4A3B2A"/>
<path d="M191.423 168.98C189.85 168.53 188.502 169.542 187.94 170.89C186.704 173.811 185.58 176.733 184.344 179.655C183.782 181.003 185.018 182.688 186.254 183.138C187.827 183.587 189.176 182.576 189.738 181.228L193.333 172.463C193.895 171.002 192.772 169.317 191.423 168.98Z" fill="#4A3B2A"/>
<path d="M111.196 138.304C110.747 134.708 105.128 134.708 105.578 138.304C106.14 142.799 105.016 151.114 99.0606 151.338C92.7682 151.563 91.6445 143.585 92.4311 139.091C93.1053 135.607 87.5994 134.034 87.0376 137.63C85.5768 145.72 88.3859 156.058 98.0494 156.957C107.825 157.856 112.095 146.394 111.196 138.304Z" fill="#4A3B2A"/>
<path d="M51.1914 175.834C49.9554 177.182 47.9328 179.654 46.0226 178.418C44.5619 177.519 44.2248 175.047 44.2248 173.474C44.2248 170.665 46.8092 163.698 50.742 167.182C53.4387 169.541 57.3715 165.609 54.6747 163.249C51.4161 160.327 46.9215 160.215 43.3259 162.575C39.8425 164.934 38.4941 169.429 38.4941 173.474C38.4941 177.295 39.8425 181.677 43.3259 183.587C47.7081 185.947 52.2027 183.138 55.0118 179.879C57.4839 177.07 53.5511 173.025 51.1914 175.834Z" fill="#4A3B2A"/>
<path d="M156.254 211.791C153.107 213.701 149.736 214.488 146.028 214.375C142.433 214.263 142.433 219.881 146.028 219.994C150.635 220.106 155.13 218.982 159.175 216.623C162.209 214.825 159.4 209.993 156.254 211.791Z" fill="#4A3B2A"/>
<path d="M164.681 237.747C164.119 236.399 162.771 235.275 161.198 235.837C117.15 250.332 69.5075 250.22 25.5726 235.5C24.5614 235.163 23.7748 235.388 23.213 235.837C21.7522 235.275 19.9544 235.725 19.5049 237.635C11.527 269.322 5.0098 301.346 0.0657223 333.595C-0.159008 334.831 0.178077 336.067 1.30173 336.741C44.6747 361.574 97.4865 357.079 143.556 342.921C144.792 342.584 145.466 341.46 145.579 340.224C146.702 326.291 147.714 312.245 148.837 298.312C149.736 286.739 150.748 267.075 166.254 265.951C167.715 265.839 169.063 264.715 169.063 263.142C169.288 254.377 167.715 245.95 164.681 237.747Z" fill="#068466"/>
<path d="M165.468 258.535C144.231 263.479 122.657 265.726 100.858 265.165C97.2627 265.052 97.2627 270.67 100.858 270.783C123.107 271.345 145.243 269.097 166.929 263.929C170.525 263.03 169.064 257.636 165.468 258.535Z" fill="white"/>
<path d="M143.78 337.19C126.476 338.314 109.172 337.19 92.092 333.819C88.6087 333.145 87.0356 338.539 90.6313 339.213C108.16 342.696 125.914 343.932 143.78 342.809C147.376 342.584 147.376 336.966 143.78 337.19Z" fill="white"/>
<path d="M34.226 280.221C33.8889 276.626 28.2706 276.626 28.6077 280.221C28.9448 283.705 28.9448 287.188 28.1583 290.671C27.4841 294.155 32.8776 295.728 33.5518 292.132C34.3384 288.199 34.5631 284.267 34.226 280.221Z" fill="white"/>
<path d="M49.5063 294.154C48.7198 292.806 46.9219 292.357 45.6859 293.143C44.3375 293.93 43.8881 295.615 44.6746 296.964C45.2365 297.975 45.3488 298.986 45.0117 299.997C44.6746 301.458 45.4612 303.031 46.9219 303.481C48.3827 303.93 49.9558 303.031 50.4053 301.571C51.0795 298.986 50.7424 296.402 49.5063 294.154Z" fill="white"/>
<path d="M29.7307 310.897C28.3823 310.56 26.4721 311.346 26.2473 312.807C25.9103 315.055 25.5732 317.302 25.1237 319.662C24.899 321.122 25.4608 322.695 27.0339 323.145C28.3823 323.482 30.2925 322.695 30.5172 321.235C30.8543 318.987 31.1914 316.74 31.6409 314.38C31.978 312.92 31.3038 311.346 29.7307 310.897Z" fill="white"/>
<path d="M54.0016 201.341C53.7768 197.745 48.1586 197.745 48.3833 201.341C48.608 204.262 48.3833 207.184 47.5968 209.993C46.6978 213.476 52.0914 214.937 52.9903 211.454C53.8892 208.195 54.2263 204.712 54.0016 201.341Z" fill="#4A3B2A"/>
<path d="M57.0356 218.533C56.2491 221.005 55.912 223.589 56.1367 226.174C56.2491 227.634 57.3727 228.983 58.9458 228.983C60.4066 228.983 61.8673 227.747 61.755 226.174C61.5302 224.039 61.755 222.129 62.5415 220.106C63.5528 216.623 58.1593 215.162 57.0356 218.533Z" fill="#4A3B2A"/>
<path d="M37.3728 217.409C35.9121 217.072 34.2266 217.859 33.8895 219.319C33.5524 220.78 33.2153 222.129 32.8782 223.589C32.5411 225.05 33.3277 226.736 34.7884 227.073C36.2492 227.41 37.9347 226.623 38.2718 225.162C38.6089 223.702 38.9459 222.353 39.283 220.893C39.6201 219.544 38.8336 217.859 37.3728 217.409Z" fill="#4A3B2A"/>
<path d="M208.502 282.244C205.918 284.828 204.008 287.975 203.109 291.458C202.21 294.941 207.604 296.402 208.502 292.919C209.177 290.334 210.413 288.087 212.435 286.177C215.02 283.705 211.087 279.772 208.502 282.244Z" fill="#4A3B2A"/>
<path d="M200.188 264.041C199.627 266.513 198.503 268.648 196.593 270.446C194.008 273.03 197.941 276.963 200.525 274.378C202.998 271.906 204.795 268.872 205.582 265.501C206.481 262.018 201.087 260.445 200.188 264.041Z" fill="#4A3B2A"/>
<path d="M227.156 248.197C226.145 247.186 224.234 247.073 223.223 248.197C221.762 249.883 220.302 251.568 218.728 253.254C217.717 254.377 217.605 256.063 218.728 257.186C219.74 258.198 221.65 258.31 222.661 257.186C224.122 255.501 225.583 253.815 227.156 252.13C228.167 251.006 228.279 249.321 227.156 248.197Z" fill="#4A3B2A"/>
<path d="M76.4736 56.0524C74.451 58.2998 72.7656 60.8842 71.4172 63.5809C70.743 64.9293 71.0801 66.6148 72.4285 67.4013C73.6645 68.0755 75.5747 67.7384 76.2489 66.3901C77.3725 64.0304 78.7209 61.8954 80.5188 59.9852C82.8784 57.2885 78.8333 53.3557 76.4736 56.0524Z" fill="white"/>
<path d="M98.3847 42.7933C96.8116 42.3438 95.4633 43.3551 94.9014 44.7035C94.0025 47.1755 93.553 49.6476 93.4407 52.232C93.3283 53.6927 94.789 55.0411 96.2498 55.0411C97.8229 55.0411 98.9466 53.8051 99.0589 52.232C99.1713 50.097 99.6208 48.1868 100.295 46.1642C100.857 44.8159 99.8455 43.1304 98.3847 42.7933Z" fill="white"/>
<path d="M94.5649 64.7047C92.9917 64.2552 91.6434 65.2665 91.0815 66.6149C90.295 68.8622 89.3961 71.1095 88.6095 73.3568C88.0477 74.8175 89.1713 76.3907 90.5197 76.8401C92.0928 77.2896 93.4412 76.2783 94.003 74.9299L96.4751 68.188C97.0369 66.7272 95.9132 65.0418 94.5649 64.7047Z" fill="white"/>
<path d="M108.836 59.1988C108.049 57.9628 106.364 57.2886 105.015 58.1875C103.779 58.9741 103.105 60.7719 104.004 62.0079C104.004 62.1203 104.341 62.6821 104.341 62.6821C104.454 62.9069 104.454 63.1316 104.566 63.244C104.454 62.6821 104.566 63.3563 104.566 63.5811C104.566 63.6934 104.566 63.8058 104.566 63.8058C104.566 63.9181 104.566 64.0305 104.454 64.1429C104.117 65.6036 104.903 67.2891 106.364 67.6262C107.825 67.9633 109.398 67.1767 109.847 65.716C110.409 63.4687 110.072 61.109 108.836 59.1988Z" fill="white"/>
<path d="M384.241 191.003C366.038 192.352 347.835 192.464 329.631 191.228C326.036 191.003 326.036 196.622 329.631 196.846C347.835 198.082 366.038 197.97 384.241 196.622C387.724 196.285 387.837 190.666 384.241 191.003Z" fill="white"/>
<path d="M385.029 208.645C366.376 206.285 347.611 204.487 328.846 203.139C325.25 202.914 325.25 208.532 328.846 208.757C347.611 210.105 366.376 211.903 385.029 214.263C388.625 214.712 388.512 209.094 385.029 208.645Z" fill="white"/>
<path d="M163.106 375.453C150.746 359.835 144.453 340.283 145.24 320.394C145.352 316.799 139.734 316.799 139.622 320.394C138.835 341.856 145.802 362.531 159.173 379.386C161.308 382.195 165.353 378.262 163.106 375.453Z" fill="#353640"/>
</svg>
