<svg width="486" height="477" viewBox="0 0 486 477" fill="none" xmlns="http://www.w3.org/2000/svg">
<path d="M125.127 142.046C108.02 133.628 89.1466 132.813 70.4095 132.406C48.0063 131.999 25.6032 131.456 3.33582 131.048C0.891841 131.048 -0.33014 133.221 0.0771895 135.393C3.33583 155.217 7.81646 174.768 13.6549 194.049C13.7906 194.592 14.0622 194.999 14.3337 195.271C14.4695 197.307 15.9631 199.208 18.407 198.258C22.2088 196.764 25.8747 195.135 29.5407 193.506C33.2067 197.986 33.3425 204.232 41.4891 202.738C50.043 201.245 58.8685 194.592 66.0646 189.975C82.2221 179.656 96.8859 167.436 111.414 155.081C116.03 152.637 120.647 150.329 125.127 147.885C127.3 146.798 127.436 143.268 125.127 142.046Z" fill="#353640"/>
<path d="M96.6166 151.279C73.263 166.893 49.2305 181.421 24.6549 195.135C20.8532 197.307 24.2476 203.146 28.0493 200.973C52.6249 187.26 76.5216 172.596 100.011 157.117C103.677 154.673 100.283 148.835 96.6166 151.279Z" fill="white"/>
<path d="M62.672 147.613C42.8486 150.736 23.161 154.402 3.60917 158.747C-0.5999 159.697 1.1652 166.214 5.37428 165.264C24.9261 161.055 44.6137 157.253 64.4371 154.13C68.782 153.451 66.8811 146.934 62.672 147.613Z" fill="white"/>
<path d="M394.236 236.547C379.301 211.292 358.663 189.568 337.753 169.202C326.891 158.611 316.029 147.749 304.216 138.109C293.626 129.555 282.085 125.074 268.643 123.852C233.748 120.729 196.817 127.79 164.095 139.195C162.601 139.738 161.651 140.96 161.651 142.454C160.972 172.596 159.75 202.874 158.256 233.017C157.442 248.359 156.491 263.566 155.541 278.909C154.59 292.351 154.454 306.336 152.146 319.642C150.517 329.282 147.258 341.502 137.482 345.983C124.312 352.228 111.549 340.28 104.76 330.233C90.5037 309.051 84.9369 281.082 85.7515 255.963C86.1588 241.163 89.0101 226.635 94.0339 212.65C98.2429 201.109 108.562 187.939 103.538 175.176C102.724 173.003 100.687 172.189 98.5145 173.139C94.8485 174.768 91.5899 177.077 88.8744 179.792C88.6028 178.706 88.3312 177.755 88.0597 176.669C87.245 174.09 84.3937 173.411 82.3571 175.176C81.1351 176.262 79.9131 177.348 78.8269 178.57C78.8269 177.212 78.8269 175.719 78.6911 174.361C78.4196 170.831 74.482 169.88 72.3096 172.596C71.9023 173.139 71.4949 173.546 71.2234 174.09C71.3592 171.102 71.0876 167.98 70.5445 164.857C70.1372 162.548 66.4712 161.462 64.8419 163.363C41.6241 192.827 30.2188 229.486 29.4042 266.825C28.5895 304.707 37.415 347.612 59.0035 379.384C70.8161 396.627 88.467 410.069 109.784 411.291C130.694 415.772 151.739 418.895 173.056 420.66C174.549 422.425 176.179 423.919 178.08 425.276C176.45 425.955 174.821 426.77 173.192 427.856C171.291 429.078 171.019 431.522 172.513 433.151C174.142 434.781 175.771 436.274 177.536 437.496C171.155 438.582 166.267 441.569 168.983 448.494C170.748 452.703 175.093 455.419 179.166 457.048C187.041 460.171 195.595 462.208 203.741 464.38C235.377 472.662 268.507 476.6 300.957 471.305C328.927 466.824 358.663 455.147 375.499 431.25C391.385 408.712 391.385 377.89 370.882 358.338C365.723 353.45 359.749 349.377 353.367 346.119C350.109 344.489 346.578 342.996 343.048 341.638C339.111 340.144 333.68 339.194 331.236 335.256C328.927 331.59 329.878 325.888 329.878 321.679C329.878 316.383 329.878 310.952 329.742 305.657L329.606 281.082C346.443 295.202 367.895 308.78 389.755 297.375C413.245 285.291 405.098 255.012 394.236 236.547Z" fill="#F4BFAB"/>
<path d="M363.685 138.109C355.946 125.21 337.888 121.951 322.545 125.21C329.334 115.298 331.778 103.486 319.422 95.4748C306.523 87.0566 292.267 91.673 280.183 98.5976C282.219 93.0308 283.441 87.3282 282.084 81.354C280.454 74.1578 275.159 67.2332 267.148 65.0608C258.866 62.8884 250.448 66.8259 245.152 72.6643C243.116 74.9725 241.622 77.5523 240.536 80.132C239.178 76.4661 237.549 72.9359 235.784 69.5414C231.711 62.0737 224.243 49.4465 213.245 50.3969C203.062 51.2116 200.618 62.8884 199.667 70.4919C198.717 78.3669 199.939 86.242 202.926 93.5739C195.866 91.673 188.534 90.5868 181.066 90.451C172.24 90.3153 159.477 90.3153 153.096 97.1041C147.665 102.807 149.023 111.361 153.639 117.063C157.033 121.272 161.921 123.716 167.352 125.346C153.367 130.505 138.025 139.331 136.938 152.229C136.395 159.29 141.962 164.721 149.43 165.943C152.689 166.486 155.676 166.079 158.527 165.264C152.01 177.484 149.158 193.098 161.65 200.566C170.34 205.861 180.251 200.702 187.312 195.678C193.557 191.197 198.988 185.902 203.605 180.064C204.963 192.284 210.394 206.676 224.107 202.738C235.105 199.615 241.894 189.025 244.745 178.163C247.732 184.273 251.398 190.111 255.743 195.542C261.446 202.603 269.185 209.934 279.504 209.934C288.465 209.934 296.34 203.825 299.599 196.493C301.5 192.419 301.907 188.21 301.5 184.001C312.498 192.419 327.297 197.307 340.06 190.654C348.207 186.309 350.651 177.348 346.985 169.745C345.763 167.165 343.998 165.128 341.961 163.363C345.899 162.548 349.7 161.191 353.231 159.426C361.649 154.945 368.981 146.934 363.685 138.109Z" fill="#353640"/>
<path d="M380.386 429.35C389.891 411.291 391.52 389.839 381.065 369.88C376.856 361.869 370.746 354.808 363.278 349.649C355.946 344.625 339.653 342.453 338.296 332.269C338.16 331.183 337.074 330.233 335.987 329.961C335.987 329.282 335.852 328.739 335.852 328.06C335.58 325.888 333.815 324.259 331.507 324.802C301.228 331.998 270.136 331.183 239.314 328.332C207.95 325.481 176.586 321.543 145.221 318.149C143.32 317.877 141.827 319.914 141.827 321.543L141.555 335.392C141.555 336.071 141.691 336.614 141.963 337.157C137.346 343.946 127.434 346.254 119.424 341.366C108.969 334.849 105.439 321.543 102.316 310.274C95.2553 284.204 92.1325 257.321 92.9471 230.301C92.9471 228.808 91.8609 227.45 90.5032 227.042C71.9018 221.747 53.3004 216.452 34.699 211.157C32.6623 210.614 31.1688 211.836 30.6257 213.465C29.5395 213.736 28.589 214.415 28.1817 215.773C16.9122 259.629 10.5307 307.965 28.3174 351.007C30.0825 355.351 32.1192 359.561 34.2916 363.634C29.811 366.078 26.2808 369.744 24.2441 374.36C22.3433 378.569 20.9855 384.815 24.7873 388.481C31.4403 394.727 42.9813 391.74 50.1775 386.309C65.656 403.688 86.1583 415.908 110.598 419.981C133.544 423.783 160.428 427.585 181.881 416.179C182.695 415.772 183.103 415.229 183.374 414.686C183.917 413.735 184.053 412.649 183.239 411.427C177.264 403.009 192.064 398.393 198.174 399.479C205.642 400.837 211.752 406.268 213.517 413.6C215.553 421.746 214.739 430.843 215.01 439.126C215.282 448.223 215.418 457.184 215.689 466.281C215.689 467.91 216.775 468.996 218.133 469.54C240.401 477.143 263.89 477.415 287.108 475.378C308.696 473.477 331.642 471.169 350.787 460.035C354.996 457.591 358.934 454.74 362.464 451.617C362.871 452.296 363.414 452.839 364.229 453.111C373.054 456.505 385.817 458.677 390.705 448.087C394.779 439.669 387.175 432.88 380.386 429.35Z" fill="#068466"/>
<path d="M485.883 103.757C477.329 72.1212 468.775 40.3494 460.221 8.71349C459.542 5.99796 456.419 5.7264 454.518 7.21994C419.216 35.733 384.05 64.5177 349.292 93.5739C347.662 94.9317 347.934 96.8325 349.156 98.0545C348.477 100.091 349.427 102.671 352.143 102.399C356.488 101.992 360.833 101.585 365.177 101.313C387.445 104.708 408.354 113.805 430.893 116.52C436.868 117.199 442.977 117.742 448.952 117.878C453.161 118.014 458.184 118.557 462.122 116.927C466.738 114.891 468.775 110.274 468.368 105.794C472.848 106.473 477.329 107.287 481.81 108.102C484.118 108.374 486.562 106.473 485.883 103.757Z" fill="#353640"/>
<path d="M173.195 51.076C143.596 30.0307 111.552 12.9228 77.6082 0.159796C76.522 -0.247534 75.0284 0.159804 74.3495 0.974464C57.2417 20.9336 40.2696 40.757 23.1618 60.7162C21.5325 62.6171 22.4829 65.061 23.9764 66.0115C24.5195 66.9619 25.47 67.7766 26.8277 67.7766C33.0735 67.6408 39.3192 67.6408 45.5649 67.505C47.0585 73.7507 49.9098 79.8607 56.9701 80.6753C60.7719 81.0827 64.7094 79.8607 68.3754 79.1818C74.4853 77.9598 80.5953 76.8736 86.7052 75.6516C102.455 72.5287 118.07 68.9986 133.684 65.4684C146.854 64.2464 159.889 62.0739 172.38 57.3218C175.232 56.2356 175.639 52.8411 173.195 51.076Z" fill="#353640"/>
<path d="M286.7 239.806C286.428 245.508 283.306 256.506 275.159 253.655C269.592 251.618 270.407 243.064 270.814 238.448C271.221 234.103 264.433 234.103 264.025 238.448C263.211 247.138 264.568 259.493 275.566 260.579C287.515 261.801 292.946 249.717 293.353 239.67C293.625 235.325 286.836 235.325 286.7 239.806Z" fill="#4A3B2A"/>
<path d="M358.254 249.581C355.131 248.088 352.687 245.915 350.922 242.928C348.75 239.127 342.911 242.521 345.084 246.323C347.256 250.26 350.786 253.519 354.86 255.42C356.489 256.234 358.526 255.827 359.476 254.198C360.291 252.84 359.883 250.396 358.254 249.581Z" fill="#4A3B2A"/>
<path d="M371.969 229.351C369.117 226.635 366.809 223.648 364.908 220.118C362.872 216.316 357.033 219.71 359.07 223.512C361.106 227.45 363.958 230.98 367.081 234.103C370.339 237.226 375.091 232.473 371.969 229.351Z" fill="#4A3B2A"/>
<path d="M383.509 244.286C379.708 241.978 376.313 247.952 380.115 250.125C382.152 251.346 383.509 253.519 383.509 255.963C383.645 260.308 390.434 260.308 390.298 255.963C390.162 251.211 387.718 246.866 383.509 244.286Z" fill="#4A3B2A"/>
<path d="M212.564 268.183C208.083 270.491 201.566 269.676 200.208 263.974C199.258 259.9 203.874 255.148 207.676 258.271C211.07 260.986 215.822 256.234 212.428 253.519C204.689 247.137 192.604 252.84 193.148 263.159C193.826 274.7 206.589 279.045 215.822 274.157C219.896 271.984 216.365 266.146 212.564 268.183Z" fill="#4A3B2A"/>
<path d="M165.318 293.98V301.72C165.318 306.064 172.107 306.064 172.107 301.72V293.98C172.107 289.635 165.318 289.635 165.318 293.98Z" fill="#4A3B2A"/>
<path d="M163.691 254.469V265.331C163.691 269.676 170.48 269.676 170.48 265.331V254.469C170.48 250.124 163.691 250.124 163.691 254.469Z" fill="#4A3B2A"/>
<path d="M184.186 274.564C183.1 270.355 176.583 272.121 177.669 276.33C178.484 279.86 179.163 283.39 179.298 287.056C179.57 291.401 186.359 291.401 186.087 287.056C185.816 282.847 185.137 278.638 184.186 274.564Z" fill="#4A3B2A"/>
<path d="M130.698 34.6469C103.271 28.537 75.5724 24.3279 47.4666 22.1555C43.1218 21.7481 43.1218 28.6727 47.4666 28.9443C74.8935 31.1167 102.049 35.19 128.797 41.1642C133.142 42.1146 134.907 35.5974 130.698 34.6469Z" fill="white"/>
<path d="M127.3 63.5676C99.6014 67.7766 71.6315 68.4555 43.6615 65.4685C39.3166 65.0611 39.3166 71.85 43.6615 72.2573C72.1746 75.2444 100.688 74.5655 129.065 70.0848C133.41 69.406 131.509 62.8887 127.3 63.5676Z" fill="white"/>
<path d="M468.64 44.1513C451.532 55.9639 430.894 61.938 411.614 69.1342C391.383 76.7377 371.152 84.3412 350.922 91.9447C346.848 93.4382 348.613 100.091 352.687 98.4619C373.732 90.5869 394.777 82.5761 415.959 74.701C434.967 67.5049 455.198 61.5307 472.034 49.9897C475.7 47.5457 472.306 41.5715 468.64 44.1513Z" fill="white"/>
<path d="M472.447 105.658C440.811 107.831 409.718 98.7335 378.082 101.313C373.737 101.721 373.737 108.509 378.082 108.102C409.718 105.522 440.811 114.755 472.447 112.447C476.791 112.175 476.791 105.387 472.447 105.658Z" fill="white"/>
<path d="M334.77 379.655C294.716 402.873 246.244 408.304 201.98 394.862C197.771 393.64 196.006 400.158 200.215 401.38C209.448 404.231 218.817 406.132 228.321 407.354C236.875 427.584 239.862 449.716 236.875 471.44C236.332 475.649 242.849 477.55 243.392 473.205C246.515 450.938 243.935 428.942 235.925 408.033C271.227 411.02 307.207 403.145 338.3 385.222C341.966 383.321 338.572 377.483 334.77 379.655Z" fill="white"/>
<path d="M344.134 341.366C326.754 346.39 308.153 345.847 290.095 346.526C272.579 347.205 255.064 348.019 237.549 348.427C204.963 349.241 171.154 347.884 141.826 331.998C138.025 329.961 134.495 335.8 138.432 337.836C168.167 353.858 202.111 355.895 235.105 355.216C253.842 354.808 272.579 353.858 291.317 353.179C309.511 352.5 328.112 352.772 345.763 347.748C350.244 346.797 348.343 340.144 344.134 341.366Z" fill="white"/>
<path d="M90.6427 239.534C68.1038 239.534 45.9722 235.732 24.5195 228.536C20.3105 227.178 18.5454 233.696 22.7544 235.053C44.6145 242.521 67.4249 246.323 90.6427 246.323C94.9876 246.323 94.9876 239.534 90.6427 239.534Z" fill="white"/>
<path d="M55.6104 293.03C54.7957 289.228 53.8453 285.426 53.0306 281.625C52.0802 277.415 45.5629 279.181 46.5133 283.39C47.328 287.191 48.2785 290.993 49.0931 294.795C50.0435 299.004 56.5608 297.239 55.6104 293.03Z" fill="white"/>
<path d="M65.7904 276.194C65.5189 274.429 64.4327 272.799 62.396 272.799C60.7667 272.799 58.73 274.429 59.0016 276.194C59.4089 279.317 59.8162 282.439 60.0878 285.562C60.3593 287.327 61.4456 288.957 63.4822 288.957C65.1115 288.957 67.1482 287.327 66.8766 285.562C66.4693 282.439 66.062 279.317 65.7904 276.194Z" fill="white"/>
<path d="M68.51 306.879C67.4238 304.435 66.4734 301.991 65.3872 299.547C64.7083 297.918 62.1285 297.511 60.7707 298.325C59.0056 299.412 58.8698 301.312 59.5487 302.942C60.6349 305.386 61.5854 307.83 62.6716 310.274C63.3505 311.903 65.9303 312.31 67.288 311.496C69.0531 310.409 69.3247 308.509 68.51 306.879Z" fill="white"/>
<path d="M282.904 424.598C282.361 422.697 280.596 422.018 278.695 422.289C276.251 422.697 273.807 422.968 271.363 423.376C269.598 423.647 268.511 425.955 269.055 427.585C269.598 429.486 271.363 430.164 273.264 429.893C275.708 429.486 278.152 429.214 280.596 428.807C282.361 428.535 283.447 426.227 282.904 424.598Z" fill="white"/>
<path d="M293.489 436.41C293.082 434.781 291.045 433.423 289.28 434.102C286.836 435.052 284.392 436.003 281.813 436.953C280.047 437.632 278.961 439.261 279.504 441.162C279.912 442.792 281.948 444.149 283.713 443.47C286.157 442.52 288.601 441.57 291.181 440.619C292.81 439.94 294.032 438.311 293.489 436.41Z" fill="white"/>
<path d="M311.822 427.449C310.464 427.177 309.378 427.585 308.563 428.399C307.205 428.535 305.983 429.485 305.712 430.843C305.304 432.608 306.255 434.509 308.02 435.052C310.735 435.867 313.315 434.238 314.266 431.658C314.809 429.893 313.587 427.856 311.822 427.449Z" fill="white"/>
<path d="M200.756 141.503C198.719 144.897 196.682 148.292 194.646 151.686C192.473 155.488 198.312 158.882 200.484 155.081C202.521 151.686 204.558 148.292 206.594 144.897C208.767 141.096 202.928 137.701 200.756 141.503Z" fill="white"/>
<path d="M202.386 114.755C201.435 113.262 199.263 112.583 197.769 113.533C195.733 114.755 193.56 116.113 191.524 117.335C189.894 118.286 189.351 120.322 190.302 121.951C191.252 123.445 193.425 124.124 194.918 123.174C196.955 121.952 199.127 120.594 201.164 119.372C202.657 118.421 203.336 116.385 202.386 114.755Z" fill="white"/>
<path d="M186.499 146.255C185.956 144.354 184.191 143.676 182.29 143.947C177.266 144.762 173.057 147.613 170.07 151.686C168.984 153.18 169.798 155.488 171.292 156.303C173.057 157.253 174.822 156.574 175.908 155.081C177.809 152.365 180.796 151.007 184.055 150.464C185.956 150.057 186.906 147.885 186.499 146.255Z" fill="white"/>
</svg>
