<svg xmlns="http://www.w3.org/2000/svg" width="48" height="45" viewBox="0 0 48 45">
  <path d="M31.24965,22.224375 L28.20375,13.078125 C28.153125,12.929025 28.125,12.763125 28.119375,12.5859 C27.939375,5.293125 22.0275,0 14.0625,0 C5.7825,0 0,5.0878125 0,12.375 C0,16.42215 0.9759375,20.56215 2.82375,24.345 C3.1415625,24.9975 3.268125,25.72875 3.1921875,26.45715 L2.385,34.135275 C2.334375,34.610625 2.4890625,35.0859 2.806875,35.440275 C3.1275,35.7975 3.5859375,36 4.06125,36 L18.9675,36 C19.45125,36 19.915275,35.789025 20.2359,35.4234 C20.556525,35.057775 20.702775,34.574025 20.638125,34.090275 L20.34,31.82625 L23.369025,32.16375 L25.003125,32.34375 C25.7934,32.4309 26.59215,32.177775 27.1884,31.6434 C27.78465,31.111875 28.125,30.346875 28.125,29.548125 L28.125,24.4434 C28.125,24.156525 28.341525,23.9175 28.625625,23.886525 L30.3075,23.698125 C30.647775,23.661525 30.94875,23.473125 31.131525,23.18625 C31.31715,22.899375 31.359375,22.547775 31.24965,22.224375 Z M28.501875,22.76715 C27.644025,22.862775 27,23.582775 27,24.4434 L27,29.548125 C27,30.029025 26.79465,30.4875 26.4375,30.805275 C26.080275,31.1259 25.605,31.277775 25.126875,31.22715 L19.035,30.549375 L17.499375,30.377775 C17.195625,30.344025 16.911525,30.56625 16.877775,30.875625 C16.844025,31.185 17.06625,31.4634 17.375625,31.49715 L19.186875,31.696875 L19.524375,34.239375 C19.546875,34.4025 19.499025,34.56 19.389375,34.68375 C19.2825,34.8075 19.130625,34.875 18.9675,34.875 L4.06125,34.875 C3.9009375,34.875 3.751875,34.8075 3.645,34.689375 C3.5353125,34.5684 3.4875,34.41375 3.5015625,34.2534 L4.3115625,26.575275 C4.41,25.6359 4.246875,24.69375 3.83625,23.852775 C2.0615625,20.219025 1.125,16.250625 1.125,12.375 C1.125,7.678125 3.943125,2.9475 10.125,1.5440625 C11.2847909,1.19964533 12.2431243,1.01829116 13,1 C13.7431243,0.982041163 15.0347909,1.10902033 16.875,1.3809375 C22.741875,2.446875 26.85375,6.8428125 26.994375,12.614025 C27.002775,12.900975 27.050625,13.179375 27.135,13.435275 L30.18375,22.581525 L28.501875,22.76715 Z" transform="matrix(-1 0 0 1 32 9)"/>
  <path fill-opacity=".5" d="M31.24965,22.224375 L28.20375,13.078125 C28.153125,12.929025 28.125,12.763125 28.119375,12.5859 C27.939375,5.293125 22.0275,0 14.0625,0 C5.7825,0 0,5.0878125 0,12.375 C0,16.42215 0.9759375,20.56215 2.82375,24.345 C3.1415625,24.9975 3.268125,25.72875 3.1921875,26.45715 L2.385,34.135275 C2.334375,34.610625 2.4890625,35.0859 2.806875,35.440275 C3.1275,35.7975 3.5859375,36 4.06125,36 L18.9675,36 C19.45125,36 19.915275,35.789025 20.2359,35.4234 C20.556525,35.057775 20.702775,34.574025 20.638125,34.090275 L20.34,31.82625 L23.369025,32.16375 L25.003125,32.34375 C25.7934,32.4309 26.59215,32.177775 27.1884,31.6434 C27.78465,31.111875 28.125,30.346875 28.125,29.548125 L28.125,24.4434 C28.125,24.156525 28.341525,23.9175 28.625625,23.886525 L30.3075,23.698125 C30.647775,23.661525 30.94875,23.473125 31.131525,23.18625 C31.31715,22.899375 31.359375,22.547775 31.24965,22.224375 Z M28.501875,22.76715 C27.644025,22.862775 27,23.582775 27,24.4434 L27,29.548125 C27,30.029025 26.79465,30.4875 26.4375,30.805275 C26.080275,31.1259 25.605,31.277775 25.126875,31.22715 L19.035,30.549375 L17.499375,30.377775 C17.195625,30.344025 16.911525,30.56625 16.877775,30.875625 C16.844025,31.185 17.06625,31.4634 17.375625,31.49715 L19.186875,31.696875 L19.524375,34.239375 C19.546875,34.4025 19.499025,34.56 19.389375,34.68375 C19.2825,34.8075 19.130625,34.875 18.9675,34.875 L4.06125,34.875 C3.9009375,34.875 3.751875,34.8075 3.645,34.689375 C3.5353125,34.5684 3.4875,34.41375 3.5015625,34.2534 L4.3115625,26.575275 C4.41,25.6359 4.246875,24.69375 3.83625,23.852775 C2.0615625,20.219025 1.125,16.250625 1.125,12.375 C1.125,7.678125 3.943125,2.9475 10.125,1.5440625 C11.2847909,1.19964533 12.2431243,1.01829116 13,1 C13.7431243,0.982041163 15.0347909,1.10902033 16.875,1.3809375 C22.741875,2.446875 26.85375,6.8428125 26.994375,12.614025 C27.002775,12.900975 27.050625,13.179375 27.135,13.435275 L30.18375,22.581525 L28.501875,22.76715 Z" transform="translate(16)"/>
</svg>
