<svg width="106" height="24" viewBox="0 0 106 24" fill="none" xmlns="http://www.w3.org/2000/svg">
<path d="M4.992 23V22.68L6.304 22.36C7.17867 22.168 7.616 21.6347 7.616 20.76V2.52H4.896C4.10667 2.52 3.54133 2.73333 3.2 3.16C2.85867 3.56533 2.496 4.13067 2.112 4.856L0.96 7.096H0.64L0.8 1.88H19.264L19.392 7.096H19.072L17.92 4.856C17.5573 4.13067 17.2053 3.56533 16.864 3.16C16.5227 2.73333 15.9573 2.52 15.168 2.52H12.448V20.76C12.448 21.6347 12.8853 22.168 13.76 22.36L15.072 22.68V23H4.992ZM24.1988 5.464C23.4734 5.464 22.8548 5.24 22.3428 4.792C21.8521 4.32267 21.6068 3.736 21.6068 3.032C21.6068 2.30667 21.8521 1.72 22.3428 1.272C22.8548 0.823999 23.4734 0.599998 24.1988 0.599998C24.9241 0.599998 25.5321 0.823999 26.0228 1.272C26.5134 1.72 26.7588 2.30667 26.7588 3.032C26.7588 3.736 26.5134 4.32267 26.0228 4.792C25.5321 5.24 24.9241 5.464 24.1988 5.464ZM20.4228 23V22.68L20.8708 22.552C21.2974 22.424 21.5854 22.232 21.7348 21.976C21.9054 21.72 21.9908 21.3787 21.9908 20.952V10.936C21.9908 10.488 21.9054 10.1573 21.7348 9.944C21.5854 9.70933 21.2974 9.54933 20.8708 9.464L20.4228 9.368V9.048L26.2788 7.16L26.5988 7.48L26.5028 12.024V20.984C26.5028 21.4107 26.5774 21.752 26.7268 22.008C26.8974 22.264 27.1854 22.456 27.5908 22.584L27.9108 22.68V23H20.4228ZM29.3275 23V22.68L29.7755 22.552C30.1808 22.4453 30.4582 22.264 30.6075 22.008C30.7782 21.752 30.8742 21.4107 30.8955 20.984V10.968C30.8955 10.4987 30.8208 10.1573 30.6715 9.944C30.5222 9.70933 30.2342 9.54933 29.8075 9.464L29.3275 9.336V9.016L34.7995 7.16L35.1195 7.48L35.3755 9.656C36.0795 8.952 36.8795 8.35467 37.7755 7.864C38.6928 7.37333 39.6422 7.128 40.6235 7.128C41.6475 7.128 42.4688 7.34133 43.0875 7.768C43.7062 8.17333 44.1755 8.81333 44.4955 9.688C45.3275 8.89867 46.2235 8.28 47.1835 7.832C48.1648 7.36267 49.1142 7.128 50.0315 7.128C51.5462 7.128 52.6555 7.49067 53.3595 8.216C54.0848 8.94133 54.4475 10.0827 54.4475 11.64V21.016C54.4475 21.848 54.8315 22.3707 55.5995 22.584L55.9515 22.68V23H48.5595V22.68L48.8795 22.584C49.2848 22.456 49.5622 22.264 49.7115 22.008C49.8822 21.752 49.9675 21.4107 49.9675 20.984V11.192C49.9675 10.296 49.8075 9.688 49.4875 9.368C49.1675 9.02667 48.6555 8.856 47.9515 8.856C47.3968 8.856 46.8528 8.984 46.3195 9.24C45.8075 9.47467 45.2635 9.83733 44.6875 10.328C44.7942 10.6693 44.8582 11.0427 44.8795 11.448C44.9222 11.8533 44.9435 12.28 44.9435 12.728V21.016C44.9648 21.848 45.3488 22.3707 46.0955 22.584L46.3835 22.68V23H38.9595V22.68L39.4075 22.552C39.8128 22.424 40.0902 22.2427 40.2395 22.008C40.4102 21.752 40.4955 21.4107 40.4955 20.984V11.224C40.4955 10.3707 40.3355 9.76267 40.0155 9.4C39.7168 9.03733 39.1942 8.856 38.4475 8.856C37.9568 8.856 37.4662 8.984 36.9755 9.24C36.4848 9.47467 35.9728 9.82667 35.4395 10.296V21.016C35.4395 21.848 35.8128 22.3707 36.5595 22.584L36.8475 22.68V23H29.3275ZM62.6745 23.416L57.2665 23V22.68L57.5865 22.616C58.4185 22.424 58.8345 21.8907 58.8345 21.016V3.896C58.8345 3.448 58.7598 3.10667 58.6105 2.872C58.4825 2.63733 58.2052 2.47733 57.7785 2.392L57.3305 2.264V1.944L63.0265 0.567999L63.4105 0.855999L63.2825 5.368V8.6C63.9865 8.10933 64.7545 7.74667 65.5865 7.512C66.4185 7.256 67.2612 7.128 68.1145 7.128C69.3305 7.128 70.4078 7.416 71.3465 7.992C72.2852 8.54667 73.0212 9.42133 73.5545 10.616C74.1092 11.7893 74.3865 13.304 74.3865 15.16C74.3865 17.016 74.0772 18.5627 73.4585 19.8C72.8612 21.016 72.0505 21.9333 71.0265 22.552C70.0238 23.1707 68.9145 23.48 67.6985 23.48C66.9092 23.48 66.1092 23.3733 65.2985 23.16C64.5092 22.9467 63.8052 22.648 63.1865 22.264L62.6745 23.416ZM66.0985 22.392C66.7812 22.392 67.3785 22.1787 67.8905 21.752C68.4025 21.3253 68.8078 20.6 69.1065 19.576C69.4052 18.5307 69.5545 17.1013 69.5545 15.288C69.5545 13.4747 69.4158 12.0773 69.1385 11.096C68.8612 10.1147 68.4665 9.432 67.9545 9.048C67.4638 8.664 66.8665 8.472 66.1625 8.472C65.1598 8.472 64.2318 8.74933 63.3785 9.304V21.592C63.7838 21.848 64.1998 22.0507 64.6265 22.2C65.0532 22.328 65.5438 22.392 66.0985 22.392ZM84.0158 7.128C85.4024 7.128 86.5864 7.416 87.5678 7.992C88.5491 8.54667 89.2958 9.31467 89.8078 10.296C90.3411 11.256 90.6078 12.3547 90.6078 13.592C90.6078 13.8267 90.5971 14.072 90.5758 14.328C90.5544 14.5627 90.5118 14.776 90.4478 14.968H80.9118C80.9331 17.272 81.3384 18.936 82.1278 19.96C82.9384 20.9627 84.1331 21.464 85.7118 21.464C86.7784 21.464 87.6424 21.2933 88.3038 20.952C88.9651 20.6107 89.5838 20.1093 90.1598 19.448L90.4798 19.736C89.8184 20.9093 88.9331 21.8267 87.8238 22.488C86.7358 23.1493 85.4238 23.48 83.8878 23.48C82.3731 23.48 81.0291 23.16 79.8558 22.52C78.6824 21.8587 77.7651 20.92 77.1038 19.704C76.4424 18.488 76.1118 17.0373 76.1118 15.352C76.1118 13.6027 76.4958 12.12 77.2638 10.904C78.0318 9.66667 79.0131 8.728 80.2078 8.088C81.4238 7.448 82.6931 7.128 84.0158 7.128ZM83.9198 7.768C83.3011 7.768 82.7678 7.96 82.3198 8.344C81.8931 8.70667 81.5518 9.368 81.2958 10.328C81.0611 11.2667 80.9331 12.6 80.9118 14.328H86.3838C86.5971 12.0027 86.5118 10.328 86.1278 9.304C85.7438 8.28 85.0078 7.768 83.9198 7.768ZM92.2025 23V22.68L92.6825 22.552C93.1092 22.424 93.3972 22.232 93.5465 21.976C93.7172 21.72 93.8025 21.3893 93.8025 20.984V10.968C93.8025 10.4987 93.7172 10.1573 93.5465 9.944C93.3972 9.70933 93.1092 9.54933 92.6825 9.464L92.2025 9.336V9.016L97.7065 7.16L98.0265 7.48L98.3145 10.232V10.488C98.6132 9.89067 98.9972 9.34667 99.4665 8.856C99.9572 8.344 100.491 7.928 101.067 7.608C101.664 7.288 102.251 7.128 102.827 7.128C103.637 7.128 104.256 7.352 104.683 7.8C105.109 8.248 105.323 8.81333 105.323 9.496C105.323 10.2213 105.109 10.7867 104.683 11.192C104.277 11.576 103.787 11.768 103.211 11.768C102.315 11.768 101.525 11.32 100.843 10.424L100.779 10.36C100.565 10.0613 100.32 9.90133 100.043 9.88C99.7652 9.83733 99.5092 9.96533 99.2745 10.264C99.0612 10.456 98.8798 10.6907 98.7305 10.968C98.6025 11.224 98.4745 11.5227 98.3465 11.864V20.792C98.3465 21.6453 98.7198 22.1787 99.4665 22.392L100.491 22.68V23H92.2025Z" fill="white"/>
</svg>
