<svg width="48" height="48" viewBox="0 0 48 48" fill="none" xmlns="http://www.w3.org/2000/svg">
<path d="M33.1576 8.74875C30.8738 8.08125 28.7326 7.05 26.7863 5.68875L24.8626 4.3425C24.3451 3.97875 23.6551 3.97875 23.1413 4.33875L21.2138 5.68875C17.9588 7.965 14.1488 9.3075 10.1888 9.57375L9.70131 9.60375C9.28881 9.63375 8.97381 9.99 9.00006 10.4025C9.02631 10.8 9.35631 11.1037 9.75006 11.1037C9.76506 11.1037 9.78381 11.1037 9.79881 11.1037L10.2863 11.07C14.5201 10.7887 18.5963 9.3525 22.0726 6.91875L24.0001 5.56875L25.9276 6.91875C28.0051 8.37375 30.2963 9.4725 32.7376 10.185C33.1351 10.305 33.5513 10.0762 33.6676 9.675C33.7838 9.28125 33.5551 8.865 33.1576 8.74875ZM38.2576 9.6L37.8151 9.57375C37.2413 9.5325 36.6638 9.4725 36.1013 9.39C35.6888 9.32625 35.3101 9.615 35.2501 10.0237C35.1901 10.4325 35.4751 10.815 35.8838 10.875C36.4876 10.9612 37.1026 11.0287 37.7138 11.07L38.1563 11.1C38.1713 11.1 38.1901 11.1 38.2051 11.1C38.5988 11.1 38.9288 10.7962 38.9551 10.3987C38.9813 9.98625 38.6701 9.63 38.2576 9.6Z" fill="white"/>
<path d="M41.3101 6.65625L38.5951 6.4725C34.1401 6.17625 29.9438 4.545 26.4563 1.75875L25.4063 0.914998C24.5776 0.254998 23.4226 0.254998 22.5938 0.914998L21.5438 1.755C18.0563 4.545 13.8601 6.17625 9.40505 6.4725L6.69005 6.65625C5.4563 6.735 4.5188 7.8075 4.5938 9.0375L5.1113 17.7037C5.70005 25.8712 9.42755 33.3262 15.6038 38.6962L22.5226 44.7112C22.9463 45.0787 23.4713 45.2625 24.0001 45.2625C24.5288 45.2625 25.0538 45.0787 25.4776 44.7112L32.3963 38.6962C38.5726 33.3225 42.3001 25.8675 42.8888 17.6925L43.4063 9.04125C43.4813 7.8075 42.5438 6.73875 41.3101 6.65625ZM41.3926 17.595C40.8601 24.9825 37.6238 31.7587 32.2501 36.7987V36.75C32.2501 36.3375 31.9126 36 31.5001 36C31.0876 36 30.7501 36.3375 30.7501 36.75V38.1412L24.4913 43.5825C24.2138 43.8262 23.7863 43.8262 23.5088 43.5825L17.2501 38.1375V36.75C17.2501 36.3375 16.9126 36 16.5001 36C16.0876 36 15.7501 36.3375 15.7501 36.75V36.7987C10.3801 31.7587 7.14005 24.9862 6.60755 17.6062L6.09005 8.9475C6.06755 8.535 6.3788 8.17875 6.7913 8.1525L9.5063 7.9725C14.2688 7.65375 18.7538 5.91 22.4813 2.92875L23.5313 2.08875C23.6701 1.97625 23.8351 1.92375 24.0001 1.92375C24.1651 1.92375 24.3301 1.97625 24.4688 2.08875L25.5188 2.92875C29.2463 5.91 33.7351 7.65375 38.4938 7.9725L41.2088 8.1525C41.6213 8.17875 41.9326 8.535 41.9101 8.9475L41.3926 17.595Z" fill="white"/>
<path d="M20.25 36C19.8375 36 19.5 36.3375 19.5 36.75V38.25C19.5 38.6625 19.8375 39 20.25 39C20.6625 39 21 38.6625 21 38.25V36.75C21 36.3375 20.6625 36 20.25 36ZM24 36C23.5875 36 23.25 36.3375 23.25 36.75V38.25C23.25 38.6625 23.5875 39 24 39C24.4125 39 24.75 38.6625 24.75 38.25V36.75C24.75 36.3375 24.4125 36 24 36ZM27.75 36C27.3375 36 27 36.3375 27 36.75V38.25C27 38.6625 27.3375 39 27.75 39C28.1625 39 28.5 38.6625 28.5 38.25V36.75C28.5 36.3375 28.1625 36 27.75 36ZM28.9387 14.7113C28.665 14.7113 28.4025 14.7713 28.1625 14.8725L28.14 14.22C28.11 13.1438 27.2437 12.3 26.1675 12.3C25.8825 12.3 25.6087 12.3638 25.365 12.4725C25.2375 11.5875 24.4837 10.9238 23.565 10.9238C22.65 10.9238 21.8962 11.5875 21.7687 12.4725C21.525 12.3638 21.255 12.3 20.9662 12.3C19.89 12.3 19.0237 13.1438 18.9975 14.22L18.8175 21.1425C18.33 20.4938 17.64 20.0175 16.8337 19.785C16.3725 19.6538 15.8775 19.7625 15.51 20.07C15.1425 20.3813 14.955 20.85 15.0075 21.3263L15.4012 24.9038C15.5625 26.3963 15.9412 27.6525 16.605 28.8825C16.7062 29.0513 19.11 33.0375 22.4325 33.0375H26.6625C28.6462 33.0375 30.3712 31.7625 30.9337 29.925C30.9562 29.8725 31.4812 28.5488 31.4887 26.5875C31.4887 24 30.9487 16.8788 30.9262 16.5975C30.87 15.54 30 14.7113 28.9387 14.7113ZM29.5237 29.4263C29.1337 30.69 27.9862 31.5375 26.6625 31.5375H22.4325C19.965 31.5375 17.9137 28.1513 17.91 28.1438C17.3475 27.1013 17.0362 26.0513 16.89 24.7425L16.5112 21.255C17.1525 21.465 17.6625 21.9413 17.9175 22.5713L18.87 24.9075C19.515 26.4975 21.0412 27.525 22.755 27.525C23.1712 27.525 23.505 27.1875 23.505 26.775C23.505 26.3588 23.1712 26.025 22.755 26.025C21.6562 26.025 20.6737 25.365 20.2612 24.345L20.2387 24.2925L20.4975 14.2575C20.505 14.0025 20.7112 13.8 20.97 13.8C21.2287 13.8 21.4387 14.01 21.4387 14.2688V20.9138C21.4387 21.33 21.81 21.6638 22.2225 21.6638C22.6275 21.6638 22.9612 21.345 22.9725 20.94L23.2537 12.7275C23.2575 12.555 23.3962 12.4238 23.5687 12.4238C23.7412 12.4238 23.88 12.555 23.8837 12.7275L24.1612 20.94C24.1762 21.345 24.54 21.6638 24.945 21.6638C25.3612 21.6638 25.695 21.33 25.695 20.9138V14.2725C25.695 14.0138 25.9087 13.8 26.1675 13.8C26.4262 13.8 26.6325 14.0025 26.64 14.2613L26.85 20.94C26.8612 21.345 27.195 21.6638 27.6 21.6638H27.7012C28.1175 21.6638 28.4512 21.33 28.4512 20.9138V16.6988C28.4512 16.4325 28.6725 16.2113 28.9425 16.2113C29.2012 16.2113 29.415 16.4175 29.43 16.6913C29.4337 16.7663 29.9887 24.0563 29.9887 26.5838C29.9812 28.2338 29.5462 29.3588 29.5237 29.4263Z" fill="white"/>
</svg>
