<svg width="48" height="48" viewBox="0 0 48 48" fill="none" xmlns="http://www.w3.org/2000/svg">
<path d="M23.25 1.5C11.2575 1.5 1.5 11.2575 1.5 23.25C1.5 35.2425 11.2575 45 23.25 45C35.2425 45 45 35.2425 45 23.25C45 11.2575 35.2425 1.5 23.25 1.5ZM31.5 23.25C31.5 27.7987 27.7987 31.5 23.25 31.5C18.7013 31.5 15 27.7987 15 23.25C15 18.7013 18.7013 15 23.25 15C27.7987 15 31.5 18.7013 31.5 23.25ZM23.25 43.5C12.0825 43.5 3 34.4175 3 23.25C3 12.3375 11.6812 3.41625 22.5 3.01875V13.5375C17.475 13.9237 13.5 18.1275 13.5 23.25C13.5 28.6275 17.8725 33 23.25 33C25.6687 33 27.8812 32.1112 29.5837 30.645L37.02 38.0812C33.4012 41.4412 28.5637 43.5 23.25 43.5ZM38.0812 37.02L30.645 29.5837C32.1112 27.8812 33 25.6687 33 23.25C33 18.1275 29.025 13.9237 24 13.5375V3.01875C34.8187 3.41625 43.5 12.3375 43.5 23.25C43.5 28.5637 41.4412 33.4012 38.0812 37.02Z" fill="white"/>
<path d="M23.25 36C22.8375 36 22.5 36.3375 22.5 36.75V38.25C22.5 38.6625 22.8375 39 23.25 39C23.6625 39 24 38.6625 24 38.25V36.75C24 36.3375 23.6625 36 23.25 36ZM9.75 24C10.1625 24 10.5 23.6625 10.5 23.25C10.5 22.8375 10.1625 22.5 9.75 22.5H8.25C7.8375 22.5 7.5 22.8375 7.5 23.25C7.5 23.6625 7.8375 24 8.25 24H9.75ZM13.1738 32.265L12.1125 33.3263C11.82 33.6188 11.82 34.095 12.1125 34.3875C12.2588 34.5338 12.45 34.605 12.645 34.605C12.8363 34.605 13.0275 34.5338 13.1738 34.3875L14.235 33.3263C14.5275 33.0338 14.5275 32.5575 14.235 32.265C13.9425 31.9725 13.4663 31.9725 13.1738 32.265ZM13.1738 14.235C13.32 14.3813 13.5113 14.4525 13.7025 14.4525C13.8975 14.4525 14.0888 14.3813 14.235 14.235C14.5275 13.9425 14.5275 13.4663 14.235 13.1738L13.1738 12.1125C12.8813 11.82 12.405 11.82 12.1125 12.1125C11.82 12.405 11.82 12.8813 12.1125 13.1738L13.1738 14.235ZM27.4688 36.0975C27.36 35.6963 26.9513 35.4563 26.55 35.565C26.1488 35.6738 25.9125 36.0825 26.0213 36.4838L26.4075 37.935C26.4975 38.2688 26.8013 38.49 27.1313 38.49C27.195 38.49 27.2625 38.4825 27.3263 38.4638C27.7275 38.355 27.9638 37.9463 27.855 37.545L27.4688 36.0975ZM19.0313 10.4025C19.1213 10.74 19.425 10.9613 19.755 10.9613C19.8188 10.9613 19.8863 10.9538 19.95 10.935C20.3513 10.8263 20.5875 10.4175 20.4788 10.0163L20.0925 8.565C19.9837 8.1675 19.5713 7.9275 19.1738 8.03625C18.7725 8.145 18.5363 8.55375 18.6413 8.955L19.0313 10.4025ZM10.935 26.55C10.8263 26.1488 10.4137 25.9088 10.0163 26.0213L8.565 26.4075C8.1675 26.5163 7.9275 26.925 8.03625 27.3263C8.12625 27.6638 8.43 27.885 8.76 27.885C8.82375 27.885 8.89125 27.8738 8.955 27.8588L10.4025 27.4688C10.8038 27.36 11.04 26.9513 10.935 26.55ZM16.875 34.29C16.515 34.0838 16.0575 34.2075 15.8513 34.5675L15.1013 35.865C14.895 36.225 15.015 36.6825 15.375 36.8888C15.4913 36.9563 15.6225 36.99 15.75 36.99C16.0088 36.99 16.26 36.855 16.3988 36.615L17.1488 35.3175C17.355 34.9575 17.235 34.5 16.875 34.29ZM9.885 16.3988L11.1825 17.1488C11.3025 17.2163 11.43 17.25 11.5575 17.25C11.8162 17.25 12.0713 17.115 12.21 16.875C12.4163 16.515 12.2925 16.0575 11.9325 15.8513L10.635 15.1013C10.275 14.8913 9.8175 15.015 9.61125 15.375C9.405 15.735 9.525 16.1925 9.885 16.3988ZM29.3513 35.3175L30.1013 36.615C30.24 36.855 30.4913 36.99 30.75 36.99C30.8775 36.99 31.0088 36.9563 31.125 36.8888C31.485 36.6825 31.605 36.225 31.3988 35.865L30.6488 34.5675C30.4425 34.2075 29.985 34.0838 29.625 34.29C29.265 34.5 29.145 34.9575 29.3513 35.3175ZM15.8513 11.9325C15.99 12.1763 16.2413 12.3075 16.5 12.3075C16.6275 12.3075 16.7588 12.2775 16.875 12.21C17.235 12 17.355 11.5425 17.1488 11.1825L16.3988 9.885C16.1925 9.525 15.7313 9.40125 15.375 9.61125C15.015 9.8175 14.895 10.275 15.1013 10.635L15.8513 11.9325ZM12.21 29.625C12 29.265 11.5425 29.1413 11.1825 29.3513L9.885 30.1013C9.525 30.3075 9.405 30.765 9.61125 31.125C9.75 31.365 10.0013 31.5 10.26 31.5C10.3875 31.5 10.5187 31.4663 10.635 31.3988L11.9325 30.6488C12.2925 30.4425 12.4163 29.985 12.21 29.625ZM19.95 35.565C19.5488 35.46 19.14 35.6963 19.0313 36.0975L18.6413 37.545C18.5363 37.9463 18.7725 38.355 19.1738 38.4638C19.2375 38.4825 19.305 38.49 19.3688 38.49C19.6988 38.49 20.0025 38.2688 20.0925 37.935L20.4788 36.4838C20.5875 36.0825 20.3513 35.6738 19.95 35.565ZM8.56875 20.0925L10.0163 20.4825C10.08 20.4975 10.1475 20.5088 10.2113 20.5088C10.5413 20.5088 10.845 20.2875 10.935 19.95C11.04 19.5525 10.8038 19.14 10.4025 19.0313L8.955 18.645C8.55375 18.5363 8.145 18.7725 8.03625 19.1738C7.93125 19.575 8.1675 19.9838 8.56875 20.0925ZM30.2625 8.59125C29.7038 8.31 29.1225 8.055 28.5375 7.8375C28.1513 7.69125 27.72 7.89 27.5738 8.27625C27.4275 8.6625 27.6263 9.0975 28.0125 9.24C28.545 9.4425 29.0775 9.675 29.5875 9.93C29.6963 9.98625 29.8088 10.0125 29.925 10.0125C30.1988 10.0125 30.4613 9.85875 30.5963 9.6C30.78 9.22875 30.6338 8.77875 30.2625 8.59125ZM34.6988 11.8013C34.2 11.3063 33.675 10.8375 33.1275 10.41C32.8013 10.155 32.3288 10.2113 32.0738 10.5375C31.8188 10.8638 31.875 11.3363 32.2013 11.5913C32.7 11.9813 33.1838 12.4088 33.6375 12.8625C36.0263 15.255 37.56 18.2775 38.07 21.6113C38.1263 21.9825 38.445 22.2488 38.8088 22.2488C38.8463 22.2488 38.8838 22.245 38.9213 22.2413C39.3338 22.1775 39.615 21.795 39.5513 21.3863C38.9963 17.7338 37.3163 14.4225 34.6988 11.8013Z" fill="white"/>
</svg>
