<svg width="48" height="48" viewBox="0 0 48 48" fill="none" xmlns="http://www.w3.org/2000/svg">
<path d="M24 7.5C14.9025 7.5 7.5 14.9025 7.5 24C7.5 33.0975 14.9025 40.5 24 40.5C33.0975 40.5 40.5 33.0975 40.5 24C40.5 14.9025 33.0975 7.5 24 7.5ZM24 39C15.7275 39 9 32.2725 9 24C9 15.7275 15.7275 9 24 9C32.2725 9 39 15.7275 39 24C39 32.2725 32.2725 39 24 39Z" fill="#068466"/>
<path d="M31.5637 14.685C31.2412 14.4225 30.7725 14.4713 30.51 14.7937C30.2475 15.1125 30.2962 15.585 30.6187 15.8475C31.02 16.1737 31.4025 16.5337 31.755 16.92C31.9012 17.0812 32.1075 17.1637 32.31 17.1637C32.49 17.1637 32.67 17.1 32.8162 16.9687C33.12 16.6875 33.1425 16.215 32.8612 15.9075C32.46 15.4687 32.0212 15.0562 31.5637 14.685ZM16.4212 16.4362C16.6012 16.4362 16.785 16.3725 16.9275 16.2412C18.8625 14.4712 21.375 13.5 24 13.5C25.3162 13.5 26.6025 13.74 27.8175 14.2162C28.2037 14.3662 28.6387 14.175 28.7887 13.7887C28.9387 13.4025 28.7475 12.9675 28.365 12.8175C26.9737 12.2737 25.5037 12 24 12C21 12 18.1312 13.1137 15.915 15.1312C15.6112 15.4087 15.5887 15.885 15.8662 16.1925C16.0162 16.3537 16.2187 16.4362 16.4212 16.4362ZM24 6C24.4162 6 24.75 5.6625 24.75 5.25V0.75C24.75 0.3375 24.4162 0 24 0C23.5837 0 23.25 0.3375 23.25 0.75V5.25C23.25 5.6625 23.5837 6 24 6ZM24 42C23.5837 42 23.25 42.3375 23.25 42.75V47.25C23.25 47.6625 23.5837 48 24 48C24.4162 48 24.75 47.6625 24.75 47.25V42.75C24.75 42.3375 24.4162 42 24 42ZM6 24C6 23.5875 5.66625 23.25 5.25 23.25H0.75C0.33375 23.25 0 23.5875 0 24C0 24.4125 0.33375 24.75 0.75 24.75H5.25C5.66625 24.75 6 24.4125 6 24ZM47.25 23.25H42.75C42.3337 23.25 42 23.5875 42 24C42 24.4125 42.3337 24.75 42.75 24.75H47.25C47.6662 24.75 48 24.4125 48 24C48 23.5875 47.6662 23.25 47.25 23.25ZM16.2825 6.89625C16.3987 7.18875 16.68 7.365 16.9762 7.365C17.07 7.365 17.1637 7.34625 17.2575 7.3125C17.64 7.155 17.8275 6.72 17.67 6.33375L16.5487 3.555C16.3913 3.16875 15.9562 2.985 15.57 3.13875C15.1875 3.2925 15.0037 3.73125 15.1575 4.11375L16.2825 6.89625ZM31.7175 41.1037C31.5637 40.7175 31.125 40.5337 30.7425 40.6875C30.36 40.845 30.1725 41.28 30.33 41.6662L31.4512 44.445C31.5712 44.7375 31.8487 44.9175 32.1487 44.9175C32.2425 44.9175 32.3362 44.8987 32.43 44.8612C32.8125 44.7075 32.9962 44.2687 32.8425 43.8862L31.7175 41.1037ZM7.30875 30.7425C7.155 30.36 6.72 30.1762 6.33375 30.33L3.55125 31.4512C3.16875 31.6087 2.98125 32.0437 3.13875 32.43C3.255 32.7225 3.53625 32.8987 3.8325 32.8987C3.92625 32.8987 4.02375 32.88 4.11375 32.8425L6.89625 31.7212C7.27875 31.5637 7.46625 31.1287 7.30875 30.7425ZM40.6912 17.2575C40.8075 17.55 41.0887 17.7262 41.385 17.7262C41.4787 17.7262 41.5725 17.7075 41.6662 17.67L44.4487 16.5487C44.8312 16.3913 45.0187 15.9562 44.8612 15.57C44.7075 15.1875 44.2687 15 43.8862 15.1575L41.1037 16.2787C40.7212 16.4363 40.5337 16.8713 40.6912 17.2575ZM30.7425 7.3125C30.8362 7.34625 30.93 7.365 31.0237 7.365C31.32 7.365 31.6013 7.18875 31.7175 6.89625L32.8425 4.11375C32.9962 3.73125 32.8125 3.2925 32.43 3.13875C32.0437 2.985 31.6087 3.16875 31.4512 3.555L30.33 6.33375C30.1725 6.72 30.36 7.155 30.7425 7.3125ZM17.2575 40.6875C16.8713 40.5337 16.4362 40.7212 16.2825 41.1037L15.1575 43.8862C15.0037 44.2687 15.1875 44.7075 15.57 44.8612C15.6637 44.8987 15.7575 44.9175 15.8512 44.9175C16.1512 44.9175 16.4287 44.7375 16.5487 44.445L17.67 41.6662C17.8275 41.28 17.64 40.845 17.2575 40.6875ZM44.4487 31.4512L41.6662 30.33C41.2837 30.1762 40.845 30.36 40.6912 30.7425C40.5337 31.1287 40.7212 31.5637 41.1037 31.7212L43.8862 32.8425C43.9762 32.88 44.0737 32.8987 44.1675 32.8987C44.4637 32.8987 44.745 32.7225 44.8612 32.43C45.015 32.0437 44.8312 31.6087 44.4487 31.4512ZM3.55125 16.5487L6.33375 17.67C6.4275 17.7075 6.52125 17.7262 6.615 17.7262C6.91125 17.7262 7.1925 17.55 7.30875 17.2575C7.46625 16.8713 7.27875 16.4363 6.89625 16.2787L4.11375 15.1575C3.73125 15 3.2925 15.1875 3.13875 15.57C2.985 15.9562 3.16875 16.3913 3.55125 16.5487ZM10.2112 11.2725C10.3575 11.4187 10.5487 11.49 10.74 11.49C10.935 11.49 11.1263 11.4187 11.2725 11.2725C11.565 10.98 11.565 10.5037 11.2725 10.2112L8.08875 7.0275C7.79625 6.735 7.32375 6.735 7.03125 7.0275C6.735 7.32375 6.735 7.79625 7.03125 8.08875L10.2112 11.2725ZM37.7887 36.7275C37.4962 36.435 37.02 36.435 36.7275 36.7275C36.435 37.02 36.435 37.4962 36.7275 37.7887L39.9112 40.9725C40.0575 41.1187 40.2487 41.19 40.44 41.19C40.6312 41.19 40.8225 41.1187 40.9687 40.9725C41.265 40.6762 41.265 40.2037 40.9687 39.9112L37.7887 36.7275ZM10.2112 36.7275L7.03125 39.9112C6.735 40.2037 6.735 40.6762 7.03125 40.9725C7.1775 41.1187 7.36875 41.19 7.56 41.19C7.75125 41.19 7.9425 41.1187 8.08875 40.9725L11.2725 37.7887C11.565 37.4962 11.565 37.02 11.2725 36.7275C10.98 36.435 10.5037 36.435 10.2112 36.7275ZM37.26 11.49C37.4512 11.49 37.6425 11.4187 37.7887 11.2725L40.9687 8.08875C41.265 7.79625 41.265 7.32375 40.9687 7.0275C40.6762 6.735 40.2037 6.735 39.9112 7.0275L36.7275 10.2112C36.435 10.5037 36.435 10.98 36.7275 11.2725C36.8737 11.4187 37.065 11.49 37.26 11.49ZM24 33C23.5837 33 23.25 33.3375 23.25 33.75V35.25C23.25 35.6625 23.5837 36 24 36C24.4162 36 24.75 35.6625 24.75 35.25V33.75C24.75 33.3375 24.4162 33 24 33ZM28.3462 32.76C28.1925 32.3737 27.7537 32.19 27.3712 32.3437C26.9887 32.5012 26.8012 32.9362 26.9587 33.3225L27.5175 34.71C27.6375 35.0025 27.9187 35.1825 28.215 35.1825C28.3087 35.1825 28.4025 35.1637 28.4962 35.1262C28.8787 34.9725 29.0662 34.5337 28.9087 34.1512L28.3462 32.76ZM20.6287 32.3437C20.2463 32.19 19.8075 32.3737 19.6537 32.76L19.0912 34.1512C18.9337 34.5337 19.1213 34.9725 19.5037 35.1262C19.5975 35.1637 19.6912 35.1825 19.785 35.1825C20.0812 35.1825 20.3625 35.0025 20.4825 34.71L21.0412 33.3225C21.1987 32.9362 21.0113 32.5012 20.6287 32.3437ZM16.575 30.3637L15.5137 31.425C15.2213 31.7175 15.2213 32.19 15.5137 32.4862C15.66 32.6325 15.855 32.7037 16.0462 32.7037C16.2375 32.7037 16.4287 32.6325 16.575 32.4862L17.6362 31.425C17.9287 31.1325 17.9287 30.6562 17.6362 30.3637C17.3437 30.0712 16.8675 30.0712 16.575 30.3637ZM15.7162 27.5175C15.5512 27.135 15.1087 26.9587 14.73 27.12L13.35 27.705C12.9675 27.8662 12.7913 28.3087 12.9525 28.6875C13.0763 28.9725 13.3537 29.145 13.6425 29.145C13.7437 29.145 13.8413 29.1262 13.9387 29.085L15.3187 28.5C15.7013 28.3387 15.8775 27.8963 15.7162 27.5175Z" fill="#068466"/>
</svg>
