<svg width="158" height="32" viewBox="0 0 158 32" fill="none" xmlns="http://www.w3.org/2000/svg">
<path d="M17.4351 0C17.0982 0 16.9298 0.202107 16.9298 0.505265V1.54947C16.9298 1.85263 17.0982 2.05474 17.4351 2.05474H17.6035C19.3214 2.12211 19.894 3.46947 19.894 5.25474V15.6968C19.894 19.7726 18.5129 22.7368 14.6056 22.7368C9.35084 22.7368 8.64347 19.4695 8.64347 15.6968V5.25474C8.64347 3.46947 9.18242 2.12211 10.9003 2.05474H11.1024C11.4393 2.05474 11.6077 1.85263 11.6077 1.54947V0.505265C11.6077 0.202107 11.4393 0 11.1024 0H0.761367C0.424525 0 0.256104 0.202107 0.256104 0.505265V1.54947C0.256104 1.85263 0.424525 2.05474 0.761367 2.05474H0.963472C2.68137 2.12211 3.254 3.46947 3.254 5.25474V16.3705C3.254 22.1979 6.95926 25.7011 13.6287 25.7011C20.3319 25.7011 23.2961 22.1979 23.2961 16.0337V5.25474C23.2961 3.46947 23.835 2.12211 25.5529 2.05474H25.7887C26.0919 2.05474 26.294 1.85263 26.294 1.54947V0.505265C26.294 0.202107 26.0919 0 25.7887 0H17.4351Z" fill="#272929"/>
<path d="M32.2835 8.05053C32.2835 7.98316 32.2498 7.94948 32.2161 7.94948H32.1487C32.0477 7.94948 31.9129 7.98316 31.8456 8.01684C30.3635 8.69053 28.9824 9.33053 25.6814 9.33053C25.3445 9.33053 25.1761 9.46526 25.1761 9.76842V10.9137C25.1761 11.1495 25.2435 11.3179 25.5803 11.3516C27.4329 11.5537 27.5677 13.4063 27.5677 15.2253V26.7789C27.6014 28.5979 26.7593 29.9789 25.1087 29.9789C24.7719 29.9789 24.6035 30.1474 24.6035 30.4842V31.4947C24.6035 31.8316 24.7719 32 25.1087 32H34.7424C35.0793 32 35.2477 31.8316 35.2477 31.4947V30.4842C35.2477 30.1474 35.0793 29.9789 34.7424 29.9789C33.0919 29.9789 32.2498 28.5979 32.2498 26.7789V24.1179C33.4624 25.1284 34.9445 25.6674 36.6287 25.6674C40.7045 25.6674 44.5108 23.0737 44.5108 16.8421C44.5108 10.3411 40.0645 7.94948 37.0329 7.94948C33.5635 7.94948 32.2498 10.1726 31.8793 11.0484L32.2835 8.05053ZM32.2498 13.1368C32.2498 13.1368 33.0245 10.9474 35.5172 10.9474C38.2793 10.9474 40.1656 13.6084 40.1656 17.9537C40.1656 20.7158 39.2898 23.4779 36.0224 23.4779C33.7993 23.4779 32.5193 21.3895 32.2498 19.3011V13.1368Z" fill="#272929"/>
<path d="M52.2019 8.05053C52.2019 7.98316 52.1682 7.94948 52.1345 7.94948H52.0672C51.9661 7.94948 51.8314 7.98316 51.764 8.01684C50.2819 8.69053 48.9008 9.33053 45.5998 9.33053C45.2629 9.33053 45.0945 9.46526 45.0945 9.76842V10.9137C45.0945 11.1495 45.1619 11.3179 45.4987 11.3516C47.3514 11.5537 47.4861 13.4063 47.4861 15.2253V26.7789C47.5198 28.5979 46.6777 29.9789 45.0272 29.9789C44.6903 29.9789 44.5219 30.1474 44.5219 30.4842V31.4947C44.5219 31.8316 44.6903 32 45.0272 32H54.6608C54.9977 32 55.1661 31.8316 55.1661 31.4947V30.4842C55.1661 30.1474 54.9977 29.9789 54.6608 29.9789C53.0103 29.9789 52.1682 28.5979 52.1682 26.7789V24.1179C53.3808 25.1284 54.8629 25.6674 56.5472 25.6674C60.6229 25.6674 64.4293 23.0737 64.4293 16.8421C64.4293 10.3411 59.9829 7.94948 56.9514 7.94948C53.4819 7.94948 52.1682 10.1726 51.7977 11.0484L52.2019 8.05053ZM52.1682 13.1368C52.1682 13.1368 52.9429 10.9474 55.4356 10.9474C58.1977 10.9474 60.084 13.6084 60.084 17.9537C60.084 20.7158 59.2082 23.4779 55.9408 23.4779C53.7177 23.4779 52.4377 21.3895 52.1682 19.3011V13.1368Z" fill="#272929"/>
<path d="M80.4245 14.9895C80.6266 14.8884 80.694 14.7537 80.694 14.5516C80.694 12.0253 78.235 8.05053 73.755 8.05053C69.814 8.05053 65.7719 10.4421 65.7719 16.7074C65.7719 21.5916 69.2077 25.6674 74.7993 25.6674C78.2014 25.6674 80.2898 24.1179 81.5361 21.76C81.6372 21.5579 81.7719 21.3558 81.7719 21.1537C81.7719 21.0526 81.7045 20.9516 81.6035 20.9179C80.5256 20.2779 80.4919 20.2442 80.2898 20.2442C80.1887 20.2442 80.054 20.2779 79.9866 20.3789C78.8077 22.0968 77.1235 22.8716 75.7087 22.8716C73.0814 22.8716 71.3972 21.12 70.6561 19.2674L80.4245 14.9895ZM70.2519 17.1453C69.9487 16.3705 69.915 15.2589 69.915 14.5853C69.915 12.3958 71.094 10.7116 72.9466 10.7116C74.4961 10.7116 75.6414 12.2947 75.6414 14.4168L70.2519 17.1453Z" fill="#272929"/>
<path d="M89.8145 7.44421C89.8145 7.37684 89.8145 7.37684 89.7808 7.37684H89.6798C89.6461 7.37684 89.5787 7.41053 89.545 7.4779C88.6356 8.1179 86.0756 9.43158 82.8756 9.93684C82.5387 9.97053 82.404 10.1053 82.404 10.3747V11.52C82.3703 11.7558 82.4714 11.9242 82.7745 11.9579C84.6608 12.16 84.7619 14.0126 84.7619 15.8316V20.0421C84.7619 21.8947 83.9872 23.2421 82.3366 23.2421H82.2693C81.9324 23.2421 81.764 23.4442 81.764 23.7474V24.7579C81.764 25.0947 81.9324 25.2632 82.2693 25.2632H92.0377C92.3745 25.2632 92.5429 25.0947 92.5429 24.7579V23.7474C92.5429 23.4442 92.3745 23.2421 92.0377 23.2421H92.004C90.3535 23.2421 89.5114 21.8947 89.5114 20.0421V13.8442C90.0166 12.6316 91.364 10.9474 92.8798 10.9474C93.8229 10.9474 94.4966 11.4526 94.4966 12.6653C94.4966 13.1368 94.4293 13.7095 94.1598 14.3832C94.1261 14.4842 94.1261 14.5853 94.1261 14.6526C94.1261 14.8547 94.2272 14.9895 94.4293 14.9895C94.4966 14.9895 94.5977 14.9558 94.7324 14.9221L97.865 13.6084C98.6735 13.2716 98.7408 12.4968 98.7408 11.4863C98.7408 9.16211 97.0566 8.01684 94.9345 8.01684C92.5429 8.01684 90.2524 9.36421 89.0061 11.9579L89.8145 7.44421Z" fill="#272929"/>
<path d="M112.977 20.1095C112.842 20.0421 112.741 20.0084 112.64 20.0084C112.505 20.0084 112.37 20.1095 112.269 20.2779C111.259 21.76 109.81 22.5347 108.497 22.6695C108.295 22.7032 108.092 22.7032 107.89 22.7032C104.488 22.7032 103.276 19.6042 103.276 16.2358C103.276 15.8316 103.309 15.3937 103.343 14.9895C103.545 12.6653 104.556 10.7116 106.711 10.7116C108.699 10.7116 109.575 11.8568 109.44 13.7768L109.406 14.1137C109.406 14.2821 109.507 14.3495 109.676 14.3495C109.777 14.3495 109.844 14.3495 109.979 14.3158L113.852 13.2716C114.088 13.2042 114.223 13.0695 114.223 12.8337V12.6989C113.751 10.5768 112.202 8.35368 108.092 8.08421L107.486 8.05053C103.68 8.05053 99.4356 10.4758 98.964 16.0674C98.5935 20.8505 101.928 25.6 106.981 25.6C107.284 25.6 107.587 25.5663 107.89 25.5326C111.09 25.2295 112.977 23.6463 114.055 21.4232C114.156 21.1537 114.088 20.9179 113.852 20.7495L112.977 20.1095Z" fill="#272929"/>
<path d="M133.854 8.96C133.854 8.62316 133.685 8.45474 133.348 8.45474H126.578C126.275 8.45474 126.073 8.62316 126.073 8.96V9.97053C126.073 10.2737 126.275 10.4758 126.578 10.4758H126.645C128.296 10.4758 129.138 11.8568 129.138 13.6758V19.8737C128.532 21.2884 126.713 22.7368 125.028 22.7368C122.435 22.7368 122.603 20.5811 122.603 18.7284V8.96C122.603 8.62316 122.435 8.45474 122.098 8.45474H115.26C114.923 8.45474 114.755 8.62316 114.755 8.96V9.97053C114.755 10.3074 114.923 10.4758 115.26 10.4758H115.395C117.045 10.4758 117.854 11.8568 117.854 13.6758V19.2337C117.887 22.4337 118.763 25.7011 123.58 25.7011C126.679 25.7011 128.734 23.2758 129.677 21.3558L129.172 25.6C129.138 25.6674 129.172 25.7011 129.205 25.7011H129.273C129.374 25.7011 129.508 25.6674 129.576 25.6337C131.092 24.9937 132.439 24.3537 135.74 24.3537C136.077 24.3537 136.245 24.1853 136.245 23.9158V22.7705C136.245 22.5347 136.178 22.3663 135.841 22.3326C133.988 22.1305 133.854 20.2779 133.854 18.4589V8.96Z" fill="#272929"/>
<path d="M148.09 21.9958C147.989 21.8274 147.855 21.7263 147.686 21.7263C147.619 21.7263 147.518 21.76 147.383 21.8274L147.349 21.8611C146.676 22.2989 145.732 22.8042 144.958 22.8042C144.183 22.8042 143.577 22.2653 143.577 20.5137V10.88H148.057C148.393 10.88 148.562 10.7116 148.562 10.3747V8.92632C148.562 8.62316 148.393 8.42105 148.057 8.42105H143.543V2.76211C143.543 2.72842 143.509 2.72842 143.476 2.72842H143.408C143.375 2.72842 143.307 2.76211 143.273 2.79579C141.892 3.97474 140.107 5.05263 139.13 5.5579C138.895 5.69263 138.827 5.92842 138.827 6.19789V8.42105H136.402C136.065 8.42105 135.897 8.62316 135.897 8.92632V9.93684C135.897 10.2737 136.065 10.4421 136.402 10.4421C138.827 10.4421 138.827 12.4968 138.827 14.2821V20.5137C138.827 24.4884 140.646 25.7011 142.735 25.7011C144.419 25.7011 146.271 24.9263 147.45 24.1853L148.461 23.5453C148.629 23.4442 148.73 23.3095 148.73 23.1411C148.73 23.04 148.697 22.9389 148.629 22.8379L148.09 21.9958Z" fill="#272929"/>
<path d="M151.438 21.3558C151 21.76 150.798 22.1979 150.798 22.6695C150.798 23.1074 151 23.5453 151.438 23.9495L152.752 25.2632C153.19 25.7011 153.628 25.9032 154.066 25.9032C154.503 25.9032 154.941 25.7011 155.379 25.2632L156.693 23.9495C157.131 23.5453 157.333 23.1074 157.333 22.6695C157.333 22.1979 157.131 21.76 156.693 21.3558L155.379 20.0421C154.941 19.6042 154.503 19.4021 154.066 19.4021C153.628 19.4021 153.19 19.6042 152.752 20.0084L151.438 21.3558Z" fill="#272929"/>
</svg>
